<?xml version="1.0" encoding="UTF-8"?>
<svg id="Layer_2" data-name="Layer 2" xmlns="http://www.w3.org/2000/svg" viewBox="0 0 102.85 70.22">
  <defs>
    <style>
      .cls-1 {
        fill: #f3fb04;
      }

      .cls-2 {
        fill: #1a1a1a;
      }
    </style>
  </defs>
  <g id="Layer_1-2" data-name="Layer 1">
    <g>
      <g>
        <path class="cls-1" d="M.21,49.7c.48,3.51,1.76,6.79,3.65,9.65-.02-.34-.02-.68,0-1.07-.02-.87-.02-1.69,0-2.48-.02-.88-.02-1.7,0-2.51-.02-.88-.02-1.7,0-2.51-.02-.88-.02-1.7,0-2.51-.02-.89-.02-1.71,0-2.51-.01-.68-.02-1.56,0-2.45-.03-1.05,.04-1.87,.22-2.67l.02-.07,.02-.07c.03-.1,.05-.2,.08-.29,.06-.21,.11-.43,.18-.64,.27-.83,.68-1.65,1.31-2.57l.09-.14,.11-.12c.12-.13,.23-.26,.34-.39,.39-.46,.88-1.04,1.6-1.49l.21-.14c.45-.32,1.02-.71,1.72-.98,.12-.05,.25-.1,.38-.15,0-.02,.02-.05,.03-.07,.1-.26,.21-.51,.3-.78l.03-.09,.04-.08c.19-.42,.35-.86,.53-1.33,.17-.46,.34-.91,.53-1.36l.04-.1,.06-.1s.07-.2,.1-.32c.06-.2,.12-.4,.19-.6l.07-.19,.1-.17c.13-.22,.24-.56,.36-.91l.04-.12c.12-.32,.25-.63,.38-.95,.18-.45,.36-.88,.49-1.29C4.3,29.76-1.16,39.66,.21,49.7Z"/>
        <path class="cls-1" d="M52.56,66.04v-.07s-.02-.07-.02-.07c-.07-.72-.06-1.4-.05-2.05v-.54c0-.39,0-.79,0-1.19-.32,0-.64,0-.96-.01-.43,.01-.85,.02-1.28,.02s-.81,0-1.22-.01c-.43,0-.85,.01-1.28,.01s-.82,0-1.23-.01c-.43,0-.85,.01-1.28,.01s-.82,0-1.23-.01c-.43,0-.85,.01-1.28,.01s-.82,0-1.23-.01c-.43,0-.85,.01-1.28,.01s-.82,0-1.23-.01c-.43,0-.85,.01-1.28,.01s-.82,0-1.23-.01c-.43,0-.85,.01-1.28,.01s-.82,0-1.23-.01c-.43,0-.85,.01-1.28,.01s-.82,0-1.23-.01c-.43,0-.85,.01-1.28,.01s-.82,0-1.23-.01c-.43,0-.86,.01-1.28,.01s-.82,0-1.22-.01c-.43,0-.86,.01-1.28,.01-.41,0-.81,0-1.22-.02-.32,0-.64,.01-.97,.01,0,.41,0,.82-.01,1.24,0,.14,0,.34,0,.54,0,.63,.02,1.29-.05,1.99v.08s-.02,.08-.02,.08c-.18,1.05-.41,2.34-1.29,3.52-.15,.19-.31,.38-.48,.56,.27,.04,.54,.07,.82,.1H54.43c-.19-.19-.37-.39-.55-.61-.93-1.26-1.16-2.59-1.32-3.57Z"/>
        <path class="cls-1" d="M8.87,63.36v-.05c0-.42-.01-.82-.01-1.2-.02,0-.37,0-.56,0-.26,0-.53,.01-.79,.01-.52,0-.96-.02-1.37-.07l-.13-.02-.11-.03c.91,1.03,1.91,1.99,2.98,2.86-.02-.53-.01-1.04,0-1.51Z"/>
        <path class="cls-1" d="M83.66,23.27c-1-1.82-3.43-5.64-8.14-8.38-6.34-3.69-12.58-2.96-14.48-2.66C56.17,3.14,45.9-1.63,36.07,.51c-8.12,1.77-14.5,7.95-16.87,15.77,.05-.03,.11-.06,.16-.09,.48-.24,.95-.47,1.49-.64,.78-.29,1.52-.35,2.12-.39,.24-.02,.47-.03,.71-.07l.13-.02c.41-.04,.86-.06,1.39-.06,.24,0,.48,0,.72,0h.54c.38,0,.82,0,1.26,0,.41,0,.82,0,1.23,.01,.43,0,.86-.01,1.28-.01s.81,0,1.22,.01c.43,0,.86-.01,1.28-.01s.82,0,1.22,.01c.43,0,.86-.01,1.28-.01s.82,0,1.22,.01c.43,0,.86-.01,1.28-.01s.82,0,1.22,.01c.43,0,.86-.01,1.28-.01s.82,0,1.22,.01c.43,0,.86-.01,1.28-.01s.82,0,1.22,.01c.43,0,.86-.01,1.28-.01s.82,0,1.22,.01c.43,0,.85-.01,1.28-.01s.82,0,1.22,.02h.44c.28-.01,.57-.01,.85-.01,.43,0,.85,0,1.28,.04h.11s.11,.03,.11,.03c.25,.05,.51,.07,.76,.1,.61,.06,1.3,.13,2.04,.38l.08,.03,.08,.03c.12,.05,.25,.1,.37,.15,.3,.12,.64,.26,.99,.44l.1,.05,.09,.06c.1,.07,.21,.13,.32,.19,.39,.22,.91,.53,1.39,1.03l.11,.11c.51,.51,1.14,1.14,1.61,2,.57,.92,.92,1.89,1.23,2.74,.16,.44,.31,.86,.48,1.24,.11,.24,.2,.48,.3,.73,.07,.17,.13,.34,.21,.51l.04,.1,.03,.1c.12,.38,.28,.78,.45,1.2,.16,.39,.32,.79,.45,1.19,.09,.24,.2,.51,.31,.79,.13,.33,.26,.65,.38,.98l.03,.08,.02,.08c.03,.11,.08,.22,.13,.33l.09,.2c.18,.43,.34,.86,.5,1.29,.15,.4,.3,.8,.46,1.19,.1,.26,.19,.49,.27,.72,.06,.16,.12,.33,.18,.49,.16,.06,.32,.12,.48,.18,.76,.31,1.41,.78,1.93,1.15,.88,.64,1.53,1.41,1.99,2,.57,.77,1.01,1.61,1.37,2.59,.09,.26,.15,.49,.21,.72,.02,.09,.09,.34,.09,.34l.02,.07c.18,.81,.25,1.68,.22,2.66,.02,.75,.02,1.56,0,2.45,.02,.86,.02,1.7,0,2.5,.02,.88,.02,1.71,0,2.51,.02,.88,.02,1.71,0,2.51,.02,.88,.02,1.71,0,2.51,.02,.88,.02,1.69,0,2.48,.02,.45,.02,.85-.01,1.23-.14,1.85-1.53,2.37-1.95,2.48l-.14,.04-.14,.02c-.42,.05-.87,.08-1.41,.08-.25,0-.51,0-.76-.01-.2,0-.59,0-.59,0,0,.4,0,.8-.01,1.19v.23c.02,.85,.03,1.81-.14,2.81-.04,.58-.21,1.06-.33,1.42l-.06,.18c-.19,.56-.44,.99-.64,1.34l-.17,.29-.11,.14c-.15,.18-.31,.35-.47,.52h17.96c11.31-1.8,19.81-11.42,20.19-22.77,.38-11.55-7.75-21.85-19.18-24.18Z"/>
        <path class="cls-1" d="M52.19,25.12c-.22-.57-.36-.69-.36-.69,0,0-.17-.09-.87-.09h-13.26s-13.26,0-13.26,0c-.87,0-.87,.01-1.14,.72-.65,1.72-1.3,3.45-1.94,5.18-.37,1.01-.75,2.01-1.12,3.01,7.76,0,15.52,0,23.27,0h11.71s-.08-.21-.08-.21c-.98-2.64-1.96-5.28-2.96-7.91Z"/>
      </g>
      <path class="cls-2" d="M63.53,68.36c.2-.35,.42-.7,.55-1.08,.13-.39,.29-.77,.29-1.19,.18-.93,.15-1.87,.13-2.8,.02-.81,.02-1.62,0-2.42q.03-.86,.89-.87c.42,0,.83,0,1.25,0,.82,0,1.65,.07,2.47-.04,.32-.09,.38-.34,.4-.62,.03-.35,.02-.69,0-1.04,.02-.84,.02-1.67,0-2.51,.02-.84,.02-1.67,0-2.51,.02-.84,.02-1.67,0-2.51,.02-.84,.02-1.67,0-2.51,.02-.83,.02-1.67,0-2.5,.02-.82,.02-1.64,0-2.46,.03-.74,0-1.47-.17-2.19-.08-.29-.14-.58-.24-.86-.26-.72-.6-1.41-1.06-2.03-.45-.59-.94-1.14-1.55-1.58-.49-.35-.97-.7-1.53-.92-.33-.14-.67-.24-1-.35-.25-.11-.34-.34-.44-.57-.23-.53-.4-1.08-.61-1.61-.34-.82-.63-1.66-.97-2.49-.1-.25-.22-.5-.3-.76-.22-.61-.48-1.2-.71-1.8-.28-.82-.66-1.61-.92-2.44-.17-.4-.32-.81-.5-1.21-.55-1.25-.87-2.61-1.61-3.78-.35-.68-.9-1.19-1.43-1.72-.38-.4-.88-.62-1.33-.91-.4-.21-.82-.35-1.22-.53-.81-.28-1.67-.25-2.5-.4-.81-.06-1.62-.03-2.44-.02-.83-.02-1.66-.02-2.5,0-.84-.02-1.67-.02-2.51,0-.84-.02-1.67-.02-2.51,0-.84-.02-1.67-.02-2.51,0-.84-.02-1.67-.02-2.51,0-.84-.02-1.67-.02-2.51,0-.84-.02-1.67-.02-2.51,0-.84-.02-1.67-.02-2.51,0-.83-.02-1.66-.02-2.49,0-.81,0-1.62-.05-2.43,.04-.83,.14-1.69,.07-2.49,.38-.43,.13-.83,.33-1.22,.53-.54,.27-1.04,.59-1.46,1.03-.49,.47-.95,.97-1.3,1.56-.5,.77-.73,1.66-1.11,2.48-.03,.06-.05,.11-.07,.17-.33,.79-.58,1.62-.94,2.4-.26,.82-.62,1.6-.93,2.41-.16,.47-.31,.95-.57,1.38-.15,.41-.21,.85-.43,1.23-.38,.9-.67,1.83-1.07,2.73-.1,.29-.22,.58-.33,.87-.15,.38-.18,.82-.6,1.05-.34,.11-.68,.22-1,.35-.56,.22-1.04,.58-1.53,.92-.64,.4-1.06,1.03-1.56,1.56-.43,.64-.81,1.31-1.05,2.05-.09,.29-.16,.58-.24,.87-.16,.72-.19,1.46-.16,2.2-.03,.82-.02,1.64,0,2.46-.02,.83-.02,1.67,0,2.5-.02,.84-.02,1.67,0,2.51-.02,.84-.02,1.67,0,2.51-.02,.84-.02,1.67,0,2.51-.02,.84-.02,1.67,0,2.51-.02,.35-.02,.69,0,1.04,.02,.28,.1,.53,.41,.61,.82,.1,1.65,.04,2.47,.04,.42,0,.83,0,1.25,0q.85,0,.87,.88c-.02,.81-.02,1.62,0,2.42-.02,.94-.04,1.88,.13,2.81,0,.28,.08,.54,.17,.81,.18,.51,.41,.99,.67,1.45,.25,.33,.53,.64,.86,.88,.47,.34,.89,.81,1.53,.85,.2,0,.4,.02,.57,.13h1.76c.77-.1,1.52-.27,2.14-.78,.4-.35,.79-.72,1.12-1.13,.58-.78,.74-1.7,.9-2.63,.08-.79,.03-1.58,.03-2.38,.02-.8,.02-1.59,0-2.39q0-.89,.68-.91c.8,.02,1.61,.02,2.41,0,.83,.02,1.66,.02,2.5,0,.84,.02,1.67,.02,2.51,0,.84,.02,1.67,.02,2.51,0,.84,.02,1.67,.02,2.51,0,.84,.02,1.67,.02,2.51,0,.84,.02,1.67,.02,2.51,0,.84,.02,1.67,.02,2.51,0,.84,.02,1.67,.02,2.51,0,.84,.02,1.67,.02,2.51,0,.84,.02,1.67,.02,2.51,0,.83,.02,1.66,.02,2.5,0,.8,.02,1.61,.02,2.41,0q.68,.04,.67,.93c-.02,.8-.02,1.59,0,2.39,0,.79-.04,1.58,.03,2.37,.15,.92,.32,1.84,.9,2.62,.32,.42,.71,.77,1.1,1.12,.56,.45,1.22,.64,1.91,.79h1.76c.4-.15,.86-.05,1.25-.26,.79-.36,1.42-.93,1.97-1.59ZM16.05,49.51c-2.38-.03-4.34-2.07-4.34-4.52,0-2.46,1.98-4.49,4.38-4.49h0s.03,0,.04,0c2.41,.02,4.33,2.02,4.33,4.51,0,2.49-2.01,4.55-4.4,4.51Zm1.82-14.15c-.48,0-.66-.03-.45-.59,1.32-3.48,2.6-6.98,3.92-10.47,.6-1.57,1.42-2.08,3.11-2.08,8.84,0,17.68,0,26.52,0,1.79,0,2.55,.47,3.19,2.14,1.35,3.54,2.66,7.09,3.98,10.64,.03,.09,.03,.2,.06,.35h-.52c-13.27,0-26.54,0-39.81,0Zm41.5,14.15c-2.39-.02-4.34-2.04-4.35-4.51,0-2.51,1.94-4.51,4.37-4.51h0s0,0,0,0c2.39,0,4.35,2.02,4.36,4.49,0,2.47-2.01,4.56-4.39,4.53Z"/>
    </g>
  </g>
</svg>