<svg id="svg" version="1.1" xmlns="http://www.w3.org/2000/svg" xmlns:xlink="http://www.w3.org/1999/xlink" width="400" height="275.86206896551727" viewBox="0, 0, 400,275.86206896551727"><g id="svgg"><path id="path0" d="M125.720 114.453 C 124.364 114.672,122.046 116.643,121.793 117.791 C 121.693 118.251,121.438 118.970,121.229 119.391 C 121.019 119.811,120.725 121.235,120.575 122.554 C 120.425 123.873,120.168 125.204,120.003 125.512 C 119.839 125.819,119.572 127.156,119.411 128.483 C 119.250 129.811,118.946 131.309,118.737 131.813 C 118.527 132.318,118.282 133.559,118.192 134.572 C 118.102 135.585,117.799 137.097,117.518 137.931 C 117.237 138.766,116.940 140.289,116.858 141.317 C 116.776 142.345,116.527 143.586,116.305 144.076 C 116.083 144.565,115.761 146.074,115.589 147.429 C 115.417 148.784,115.149 150.131,114.993 150.423 C 114.836 150.715,114.603 151.704,114.473 152.620 C 114.148 154.922,114.264 154.871,108.883 155.087 C 102.000 155.362,101.435 155.557,99.656 158.272 C 98.538 159.977,98.860 212.028,99.994 212.857 C 100.225 213.026,100.414 213.303,100.414 213.472 C 100.414 213.641,100.775 213.966,101.216 214.194 C 101.658 214.422,102.072 214.767,102.136 214.960 C 102.224 215.226,103.952 215.343,109.344 215.448 C 115.242 215.563,116.479 215.656,116.696 216.000 C 116.842 216.231,116.959 219.469,116.961 223.342 C 116.965 229.930,116.994 230.306,117.537 230.997 L 118.109 231.724 126.069 231.724 L 134.029 231.724 134.601 230.997 C 135.145 230.305,135.172 229.934,135.172 223.293 C 135.172 217.283,135.233 216.254,135.611 215.877 C 136.324 215.164,176.856 215.359,177.576 216.078 C 178.017 216.518,178.086 217.370,178.230 224.078 C 178.319 228.208,178.412 231.617,178.437 231.655 C 178.735 232.105,195.052 231.656,195.301 231.191 C 195.476 230.864,195.586 227.991,195.586 223.773 C 195.586 214.673,194.650 215.625,203.768 215.448 C 211.187 215.305,212.322 215.089,212.925 213.709 C 212.978 213.586,213.288 213.238,213.614 212.934 L 214.207 212.382 214.207 185.404 L 214.207 158.427 213.241 157.310 C 211.671 155.494,210.903 155.291,204.736 155.069 C 199.229 154.870,199.356 154.933,199.077 152.270 C 198.982 151.355,198.730 150.269,198.518 149.855 C 198.307 149.442,198.043 148.172,197.933 147.034 C 197.823 145.897,197.559 144.545,197.347 144.032 C 197.136 143.518,196.837 141.986,196.683 140.628 C 196.529 139.270,196.235 137.828,196.031 137.424 C 195.826 137.020,195.570 135.761,195.462 134.626 C 195.353 133.491,195.091 132.146,194.879 131.639 C 194.666 131.131,194.362 129.639,194.202 128.323 C 194.043 127.008,193.733 125.545,193.513 125.073 C 193.294 124.602,193.037 123.298,192.942 122.177 C 192.847 121.055,192.534 119.669,192.247 119.095 C 191.959 118.521,191.724 117.817,191.724 117.530 C 191.724 116.534,189.090 114.575,187.494 114.383 C 185.667 114.163,127.102 114.230,125.720 114.453 M181.609 126.018 C 181.858 126.294,182.143 126.945,182.242 127.466 C 182.342 127.987,182.540 128.643,182.683 128.922 C 182.826 129.202,183.119 130.678,183.333 132.203 C 183.547 133.727,183.841 135.118,183.986 135.294 C 184.132 135.469,184.391 136.765,184.562 138.173 C 184.733 139.580,185.055 141.166,185.277 141.697 C 185.498 142.228,185.746 143.491,185.826 144.503 C 185.907 145.516,186.203 147.028,186.483 147.862 C 186.764 148.697,187.068 150.216,187.159 151.238 C 187.251 152.260,187.393 153.275,187.477 153.492 C 187.560 153.710,187.371 154.146,187.056 154.461 L 186.483 155.034 156.828 155.034 L 127.172 155.034 126.597 154.459 C 126.227 154.089,126.073 153.670,126.166 153.286 C 126.246 152.958,126.395 151.883,126.499 150.897 C 126.602 149.910,126.850 148.731,127.051 148.276 C 127.252 147.821,127.553 146.275,127.720 144.841 C 127.888 143.407,128.144 142.090,128.290 141.915 C 128.435 141.739,128.729 140.348,128.943 138.824 C 129.157 137.299,129.475 135.784,129.650 135.457 C 129.825 135.130,130.075 133.826,130.206 132.559 C 130.337 131.292,130.639 129.878,130.877 129.417 C 131.115 128.956,131.310 128.217,131.310 127.775 C 131.310 127.333,131.568 126.644,131.882 126.244 L 132.454 125.517 156.805 125.517 C 179.981 125.517,181.178 125.541,181.609 126.018 M131.089 172.135 C 131.502 172.440,131.969 172.690,132.127 172.690 C 132.696 172.690,135.723 176.148,135.726 176.802 C 135.727 177.044,135.938 177.614,136.194 178.069 C 136.843 179.218,136.843 182.989,136.194 184.138 C 135.938 184.593,135.725 185.090,135.721 185.241 C 135.697 186.234,132.850 189.270,131.586 189.651 C 131.207 189.765,130.671 190.057,130.395 190.300 C 129.391 191.182,124.708 191.108,122.826 190.179 C 120.131 188.849,117.970 186.609,117.600 184.761 C 117.504 184.280,117.261 183.571,117.059 183.185 C 116.287 181.705,117.168 177.085,118.535 175.446 C 119.702 174.047,121.126 172.690,121.426 172.690 C 121.604 172.690,121.981 172.480,122.264 172.224 C 123.438 171.162,129.688 171.098,131.089 172.135 M191.622 172.339 C 193.766 173.672,195.732 175.911,195.996 177.319 C 196.102 177.882,196.314 178.421,196.468 178.516 C 196.974 178.829,197.077 182.159,196.613 183.197 C 196.382 183.714,196.073 184.510,195.928 184.966 C 195.349 186.774,193.155 189.219,191.724 189.651 C 191.345 189.765,190.804 190.061,190.522 190.308 C 189.760 190.978,183.754 190.966,183.082 190.294 C 182.826 190.038,182.339 189.742,181.998 189.636 C 180.768 189.252,177.931 186.234,177.931 185.309 C 177.931 185.115,177.683 184.494,177.379 183.928 C 176.333 181.977,177.123 176.753,178.645 175.556 C 178.859 175.387,179.034 175.146,179.034 175.020 C 179.034 174.692,181.229 172.690,181.588 172.690 C 181.753 172.690,182.119 172.480,182.402 172.224 C 183.717 171.034,189.643 171.108,191.622 172.339 " stroke="none" fill="#060604" fill-rule="evenodd"></path><path id="path1" d="M145.379 0.856 C 145.379 1.010,145.255 1.059,145.103 0.966 C 144.952 0.872,144.828 1.051,144.828 1.363 C 144.828 1.902,144.673 1.931,141.803 1.931 C 139.060 1.931,138.750 1.983,138.483 2.483 C 138.231 2.952,137.905 3.034,136.289 3.034 C 134.033 3.034,133.517 3.194,133.517 3.892 C 133.517 4.381,131.921 4.648,130.276 4.434 C 130.086 4.410,129.931 4.627,129.931 4.918 C 129.931 5.370,129.652 5.473,128.000 5.636 C 126.338 5.800,126.069 5.901,126.069 6.362 C 126.069 6.898,125.638 7.024,124.200 6.906 C 123.855 6.878,123.590 6.958,123.612 7.083 C 123.783 8.066,123.560 8.276,122.345 8.276 C 121.287 8.276,121.103 8.358,121.103 8.828 C 121.103 9.276,120.920 9.379,120.126 9.379 C 119.465 9.379,118.907 9.603,118.405 10.069 C 117.994 10.450,117.328 10.759,116.918 10.759 C 116.417 10.759,116.118 10.939,116.000 11.310 C 115.870 11.718,115.583 11.862,114.894 11.862 C 114.382 11.862,113.875 12.005,113.767 12.181 C 113.645 12.378,113.691 12.424,113.888 12.302 C 114.064 12.194,114.207 12.237,114.207 12.398 C 114.207 12.558,114.031 12.690,113.816 12.690 C 113.601 12.690,113.384 12.806,113.333 12.949 C 113.283 13.092,112.902 13.270,112.487 13.344 C 111.522 13.517,111.172 13.738,111.172 14.176 C 111.172 14.369,110.893 14.517,110.552 14.505 C 110.132 14.490,109.905 14.662,109.851 15.034 C 109.807 15.338,109.466 15.730,109.092 15.905 C 108.578 16.147,108.458 16.147,108.596 15.905 C 108.696 15.730,108.479 15.842,108.113 16.154 C 107.748 16.467,107.107 16.867,106.690 17.045 C 106.272 17.222,105.931 17.556,105.931 17.787 C 105.931 18.166,105.606 18.330,105.034 18.240 C 104.921 18.222,104.828 18.455,104.828 18.759 C 104.828 19.066,104.644 19.310,104.412 19.310 C 104.183 19.310,103.732 19.615,103.409 19.986 C 103.085 20.358,102.478 20.738,102.059 20.830 C 101.628 20.924,101.237 21.230,101.157 21.533 C 101.075 21.848,100.780 22.069,100.440 22.069 C 100.053 22.069,99.862 22.245,99.862 22.602 C 99.862 22.944,99.640 23.166,99.241 23.222 C 98.842 23.279,98.589 23.532,98.533 23.931 C 98.474 24.341,98.255 24.552,97.886 24.552 C 97.569 24.552,97.268 24.779,97.190 25.078 C 97.114 25.367,96.808 25.668,96.509 25.746 C 96.170 25.835,95.998 26.078,96.052 26.392 C 96.111 26.738,95.943 26.924,95.518 26.985 C 95.131 27.040,94.834 27.325,94.729 27.743 C 94.625 28.158,94.362 28.414,94.039 28.414 C 93.704 28.414,93.517 28.608,93.517 28.956 C 93.517 29.254,93.270 29.630,92.969 29.791 C 92.667 29.953,92.346 30.383,92.254 30.746 C 92.163 31.110,91.851 31.622,91.561 31.885 C 91.272 32.147,91.034 32.526,91.034 32.727 C 91.034 32.928,90.722 33.171,90.340 33.267 C 89.901 33.377,89.673 33.608,89.719 33.893 C 89.766 34.181,89.568 34.377,89.172 34.433 C 88.765 34.491,88.552 34.711,88.552 35.072 C 88.552 35.755,88.043 36.755,87.546 37.048 C 87.340 37.170,87.172 37.497,87.172 37.777 C 87.172 38.089,86.906 38.352,86.483 38.458 C 86.054 38.566,85.793 38.827,85.793 39.148 C 85.793 39.432,85.623 39.731,85.414 39.811 C 85.206 39.891,84.957 40.371,84.862 40.878 C 84.752 41.466,84.464 41.899,84.069 42.073 C 83.618 42.271,83.425 42.619,83.364 43.351 C 83.304 44.074,83.129 44.397,82.744 44.498 C 82.323 44.608,82.207 44.880,82.207 45.762 C 82.207 46.731,82.112 46.910,81.517 47.059 C 80.916 47.210,80.828 47.384,80.828 48.412 C 80.828 49.359,80.719 49.619,80.276 49.735 C 79.837 49.850,79.724 50.111,79.724 51.009 C 79.724 52.021,79.655 52.138,79.054 52.138 C 78.502 52.138,78.386 52.273,78.399 52.897 C 78.428 54.311,78.346 54.556,77.793 54.701 C 77.318 54.825,77.241 55.077,77.241 56.526 C 77.241 57.836,77.150 58.207,76.828 58.207 C 76.600 58.207,76.414 58.338,76.414 58.499 C 76.414 58.660,76.290 58.714,76.138 58.621 C 75.964 58.513,75.862 59.176,75.862 60.416 C 75.862 62.228,75.821 62.369,75.334 62.214 C 74.763 62.033,74.271 64.640,74.535 66.440 C 74.631 67.094,74.565 67.208,74.153 67.100 C 73.813 67.011,73.642 67.133,73.613 67.485 C 73.590 67.768,73.542 68.124,73.507 68.276 C 73.472 68.428,73.429 69.623,73.411 70.933 C 73.383 73.002,73.312 73.332,72.869 73.448 C 72.175 73.630,72.022 74.618,72.039 78.801 C 72.088 90.890,72.036 92.089,71.448 92.276 C 71.145 92.372,70.897 92.691,70.897 92.984 C 70.897 93.460,70.690 93.517,68.966 93.517 C 67.449 93.517,66.924 93.628,66.520 94.032 C 66.181 94.371,65.463 94.591,64.416 94.678 C 63.223 94.777,62.715 94.955,62.379 95.393 C 62.067 95.799,61.575 95.997,60.759 96.042 C 59.837 96.094,59.586 96.214,59.586 96.606 C 59.586 97.002,59.348 97.110,58.414 97.135 C 57.769 97.153,57.117 97.196,56.966 97.231 C 56.814 97.266,56.543 97.314,56.363 97.337 C 56.184 97.360,55.958 97.628,55.862 97.931 C 55.750 98.284,55.445 98.483,55.016 98.483 C 54.647 98.483,54.343 98.638,54.341 98.828 C 54.338 99.077,54.270 99.068,54.096 98.792 C 53.814 98.347,53.241 98.613,53.241 99.189 C 53.241 99.444,52.953 99.586,52.436 99.586 C 51.272 99.586,50.759 99.849,50.759 100.443 C 50.759 100.964,50.415 101.078,49.152 100.974 C 48.712 100.937,48.465 101.098,48.363 101.488 C 48.264 101.868,47.904 102.114,47.273 102.232 C 46.755 102.329,46.178 102.628,45.990 102.896 C 45.803 103.163,45.402 103.430,45.101 103.487 C 44.785 103.547,44.514 103.854,44.464 104.210 C 44.389 104.733,44.205 104.828,43.265 104.828 C 42.387 104.828,42.125 104.943,42.011 105.379 C 41.880 105.882,41.595 106.052,41.034 105.964 C 40.921 105.946,40.842 106.024,40.860 106.138 C 41.014 107.110,40.796 107.310,39.586 107.310 C 38.543 107.310,38.345 107.396,38.345 107.843 C 38.345 108.137,38.103 108.453,37.807 108.547 C 37.512 108.641,37.193 108.960,37.099 109.255 C 37.005 109.551,36.688 109.793,36.395 109.793 C 36.058 109.793,35.862 109.983,35.862 110.310 C 35.862 110.701,35.588 110.870,34.731 111.007 C 33.941 111.133,33.558 111.347,33.461 111.716 C 33.385 112.007,33.056 112.283,32.731 112.329 C 32.327 112.387,32.144 112.603,32.157 113.007 C 32.169 113.383,32.045 113.549,31.819 113.463 C 31.430 113.313,30.621 113.989,30.621 114.463 C 30.621 114.626,30.372 114.759,30.069 114.759 C 29.722 114.759,29.517 114.943,29.517 115.255 C 29.517 115.893,29.001 116.410,28.540 116.233 C 28.322 116.149,28.146 116.346,28.091 116.738 C 28.029 117.171,27.843 117.353,27.517 117.298 C 27.163 117.239,27.034 117.404,27.034 117.919 C 27.034 118.571,26.661 118.795,25.827 118.642 C 25.694 118.617,25.651 118.851,25.732 119.161 C 25.869 119.683,25.545 119.881,24.759 119.757 C 24.645 119.739,24.552 120.034,24.552 120.414 C 24.552 120.930,24.406 121.103,23.974 121.103 C 23.632 121.103,23.339 121.324,23.255 121.646 C 23.177 121.944,22.878 122.263,22.591 122.354 C 22.304 122.445,22.069 122.715,22.069 122.952 C 22.069 123.190,21.759 123.673,21.379 124.024 C 20.991 124.384,20.690 124.971,20.690 125.366 C 20.690 125.851,20.540 126.070,20.207 126.071 C 19.941 126.072,19.508 126.452,19.244 126.916 C 18.948 127.435,18.639 127.683,18.438 127.559 C 18.219 127.423,18.170 127.506,18.288 127.815 C 18.401 128.107,18.215 128.502,17.774 128.911 C 17.394 129.263,16.984 129.916,16.861 130.362 C 16.713 130.902,16.486 131.145,16.181 131.091 C 15.873 131.037,15.724 131.202,15.724 131.599 C 15.724 131.923,15.450 132.410,15.114 132.681 C 14.778 132.953,14.491 133.476,14.475 133.843 C 14.435 134.756,14.130 135.179,13.646 134.993 C 13.326 134.870,13.241 135.104,13.241 136.108 C 13.241 137.280,13.188 137.379,12.552 137.379 C 11.954 137.379,11.862 137.502,11.862 138.302 C 11.862 138.874,11.653 139.414,11.310 139.724 C 11.007 139.999,10.759 140.466,10.759 140.762 C 10.759 141.058,10.448 141.544,10.069 141.842 C 9.672 142.155,9.379 142.669,9.379 143.055 C 9.379 143.423,9.131 143.972,8.828 144.276 C 8.442 144.662,8.276 145.195,8.276 146.050 C 8.276 147.107,8.192 147.284,7.655 147.360 C 7.128 147.435,7.022 147.641,6.952 148.730 C 6.890 149.688,6.743 150.045,6.373 150.142 C 5.878 150.271,5.527 151.518,5.520 153.172 C 5.518 153.633,5.367 153.931,5.136 153.931 C 4.624 153.931,4.422 154.800,4.418 157.026 C 4.414 158.611,4.350 158.855,3.972 158.710 C 3.327 158.462,3.020 159.125,3.052 160.690 C 3.107 163.283,3.058 163.541,2.483 163.724 C 1.967 163.888,1.931 164.142,1.931 167.605 C 1.931 170.741,1.866 171.310,1.510 171.310 C 0.702 171.310,0.594 172.689,0.592 183.030 C 0.591 193.365,0.700 194.759,1.510 194.759 C 1.867 194.759,1.931 195.332,1.931 198.509 C 1.931 202.027,1.965 202.267,2.483 202.403 C 2.786 202.482,3.047 202.688,3.062 202.860 C 3.078 203.032,3.118 203.855,3.151 204.690 C 3.261 207.392,3.275 207.448,3.862 207.448 C 4.362 207.448,4.414 207.632,4.414 209.396 C 4.414 210.490,4.523 211.275,4.664 211.188 C 4.802 211.103,4.854 211.265,4.780 211.548 C 4.699 211.856,4.819 212.129,5.081 212.229 C 5.321 212.321,5.517 212.703,5.517 213.077 C 5.517 214.097,6.002 215.172,6.463 215.172 C 6.770 215.172,6.890 215.597,6.952 216.897 C 7.026 218.445,7.098 218.630,7.655 218.709 C 8.192 218.785,8.276 218.962,8.276 220.019 C 8.276 221.057,8.359 221.241,8.828 221.241 C 9.353 221.241,9.571 222.058,9.400 223.379 C 9.374 223.577,9.656 223.724,10.057 223.724 C 10.705 223.724,10.759 223.820,10.759 224.966 C 10.759 226.023,10.840 226.207,11.310 226.207 C 11.780 226.207,11.862 226.391,11.862 227.443 C 11.862 228.531,11.944 228.700,12.552 228.852 C 13.140 229.000,13.241 229.184,13.241 230.099 C 13.241 230.989,13.336 231.172,13.793 231.172 C 14.198 231.172,14.345 231.356,14.345 231.862 C 14.345 232.241,14.478 232.552,14.640 232.552 C 15.204 232.552,15.807 233.427,15.784 234.212 C 15.767 234.822,15.899 235.021,16.364 235.087 C 16.753 235.142,16.966 235.367,16.966 235.724 C 16.966 236.086,17.179 236.306,17.586 236.364 C 18.110 236.438,18.207 236.622,18.207 237.543 C 18.207 238.453,18.321 238.678,18.897 238.897 C 19.276 239.041,19.586 239.348,19.586 239.579 C 19.586 239.816,19.827 240.000,20.138 240.000 C 20.543 240.000,20.690 240.184,20.690 240.690 C 20.690 241.241,20.828 241.379,21.379 241.379 C 22.046 241.379,22.236 241.796,22.094 242.945 C 22.072 243.123,22.283 243.433,22.563 243.634 C 22.842 243.835,23.152 244.217,23.251 244.483 C 23.350 244.748,23.683 244.966,23.991 244.966 C 24.405 244.966,24.552 245.146,24.552 245.655 C 24.552 246.161,24.699 246.345,25.103 246.345 C 25.407 246.345,25.655 246.476,25.655 246.637 C 25.655 246.798,25.779 246.852,25.931 246.759 C 26.083 246.665,26.207 246.709,26.207 246.857 C 26.207 247.005,26.052 247.189,25.862 247.266 C 25.550 247.391,26.315 247.562,26.828 247.481 C 26.941 247.463,27.034 247.759,27.034 248.138 C 27.034 248.635,27.183 248.828,27.567 248.828 C 27.904 248.828,28.132 249.049,28.188 249.432 C 28.249 249.850,28.553 250.108,29.172 250.267 C 29.666 250.395,30.069 250.626,30.069 250.783 C 30.069 250.939,29.945 250.990,29.793 250.897 C 29.641 250.803,29.517 250.858,29.517 251.018 C 29.517 251.179,29.828 251.310,30.207 251.310 C 30.723 251.310,30.897 251.456,30.897 251.888 C 30.897 252.230,31.118 252.523,31.439 252.607 C 31.738 252.685,32.056 252.984,32.147 253.271 C 32.238 253.558,32.485 253.793,32.696 253.793 C 32.906 253.793,33.389 254.103,33.768 254.483 C 34.147 254.862,34.774 255.172,35.160 255.172 C 35.689 255.172,35.862 255.315,35.862 255.750 C 35.862 256.086,36.082 256.385,36.388 256.465 C 36.678 256.541,36.976 256.840,37.052 257.129 C 37.128 257.418,37.422 257.655,37.706 257.655 C 37.990 257.655,38.438 257.907,38.701 258.215 C 38.965 258.522,39.551 258.848,40.004 258.939 C 40.567 259.051,40.828 259.267,40.828 259.621 C 40.828 259.989,41.027 260.138,41.517 260.138 C 42.009 260.138,42.207 260.287,42.207 260.659 C 42.207 261.040,42.477 261.231,43.212 261.369 C 44.270 261.567,45.073 262.145,44.745 262.473 C 44.639 262.579,44.676 262.642,44.828 262.611 C 45.991 262.376,46.896 262.660,47.059 263.310 C 47.165 263.731,47.429 264.000,47.735 264.000 C 48.012 264.000,48.317 264.248,48.414 264.552 C 48.551 264.983,48.831 265.103,49.700 265.103 C 50.560 265.103,50.841 265.222,50.948 265.630 C 51.085 266.156,51.786 266.472,52.830 266.479 C 53.135 266.481,53.540 266.731,53.729 267.034 C 53.957 267.400,54.376 267.588,54.968 267.591 C 55.555 267.594,56.083 267.829,56.505 268.273 C 56.858 268.646,57.231 268.939,57.332 268.926 C 58.357 268.785,59.586 269.024,59.586 269.363 C 59.586 270.026,60.342 270.234,63.103 270.333 C 63.293 270.339,63.448 270.593,63.448 270.897 C 63.448 271.391,63.632 271.448,65.223 271.448 C 66.718 271.448,67.023 271.530,67.162 271.967 C 67.355 272.576,68.378 272.828,70.655 272.828 C 72.092 272.828,72.276 272.890,72.276 273.379 C 72.276 273.901,72.460 273.931,75.659 273.931 C 78.943 273.931,79.056 273.951,79.558 274.619 L 80.075 275.308 200.427 275.310 C 324.206 275.312,321.655 275.330,321.655 274.453 C 321.655 273.967,321.907 273.931,325.267 273.931 C 328.647 273.931,328.889 273.896,329.024 273.379 C 329.164 272.841,330.097 272.663,332.017 272.810 C 332.893 272.877,334.069 272.338,334.069 271.869 C 334.069 271.549,334.417 271.441,335.517 271.416 C 337.641 271.370,337.792 271.342,337.792 270.989 C 337.794 270.459,338.086 270.317,339.349 270.234 C 340.011 270.190,340.769 270.135,341.034 270.112 C 341.319 270.087,341.517 269.842,341.517 269.517 C 341.517 269.053,341.701 268.966,342.679 268.966 C 343.572 268.966,343.971 268.810,344.403 268.294 C 344.766 267.861,345.352 267.576,346.056 267.490 C 346.656 267.416,347.285 267.167,347.454 266.936 C 347.720 266.571,348.555 266.310,349.706 266.230 C 349.885 266.217,350.111 265.959,350.207 265.655 C 350.344 265.224,350.624 265.103,351.493 265.103 C 352.371 265.103,352.634 264.988,352.748 264.552 C 352.841 264.195,353.124 264.000,353.549 264.000 C 353.911 264.000,354.192 263.907,354.174 263.793 C 354.020 262.819,354.238 262.621,355.460 262.621 C 356.485 262.621,356.699 262.536,356.633 262.154 C 356.574 261.817,356.840 261.618,357.592 261.436 C 358.164 261.297,358.758 260.949,358.912 260.661 C 359.067 260.371,359.486 260.138,359.853 260.138 C 360.328 260.138,360.538 259.964,360.602 259.517 C 360.658 259.124,360.867 258.911,361.173 258.935 C 361.438 258.956,361.655 258.854,361.655 258.708 C 361.655 258.176,362.464 257.655,363.291 257.655 C 363.954 257.655,364.138 257.535,364.138 257.103 C 364.138 256.800,364.262 256.536,364.414 256.517 C 364.566 256.498,364.845 256.467,365.034 256.448 C 365.224 256.429,365.418 256.142,365.465 255.810 C 365.519 255.434,365.779 255.174,366.155 255.120 C 366.487 255.073,366.774 254.879,366.793 254.690 C 366.812 254.500,366.843 254.221,366.862 254.069 C 366.881 253.917,367.202 253.793,367.575 253.793 C 367.949 253.793,368.476 253.562,368.748 253.279 C 369.019 252.996,369.521 252.619,369.862 252.441 C 370.203 252.264,370.483 251.937,370.483 251.714 C 370.483 251.492,370.723 251.310,371.016 251.310 C 371.309 251.310,371.624 251.075,371.715 250.788 C 371.806 250.501,372.125 250.203,372.423 250.125 C 372.745 250.040,372.966 249.747,372.966 249.405 C 372.966 249.003,373.141 248.828,373.543 248.828 C 373.885 248.828,374.178 248.607,374.263 248.285 C 374.341 247.987,374.639 247.668,374.926 247.577 C 375.213 247.486,375.448 247.171,375.448 246.878 C 375.448 246.530,375.639 246.345,375.995 246.345 C 376.342 246.345,376.602 246.103,376.708 245.681 C 376.799 245.316,377.112 244.955,377.403 244.879 C 377.693 244.803,377.931 244.530,377.931 244.272 C 377.931 244.015,378.241 243.559,378.621 243.261 C 379.008 242.956,379.310 242.433,379.310 242.068 C 379.310 241.604,379.488 241.392,379.931 241.330 C 380.330 241.273,380.583 241.020,380.640 240.621 C 380.697 240.222,380.918 240.000,381.261 240.000 C 381.603 240.000,381.793 239.810,381.793 239.467 C 381.793 239.174,382.031 238.858,382.323 238.766 C 382.677 238.653,382.913 238.237,383.036 237.506 C 383.176 236.679,383.349 236.414,383.748 236.414 C 384.123 236.414,384.276 236.220,384.276 235.743 C 384.276 235.258,384.447 235.049,384.897 234.985 C 385.413 234.911,385.532 234.699,385.602 233.724 C 385.671 232.776,385.790 232.552,386.223 232.552 C 386.610 232.552,386.759 232.361,386.759 231.862 C 386.759 231.371,386.908 231.172,387.278 231.172 C 387.810 231.172,388.127 230.477,388.134 229.294 C 388.136 228.940,388.261 228.733,388.414 228.828 C 388.566 228.921,388.690 228.859,388.690 228.690 C 388.690 228.520,388.814 228.458,388.966 228.552 C 389.134 228.656,389.241 228.233,389.241 227.465 C 389.241 226.242,389.381 226.070,390.276 226.186 C 390.508 226.216,390.621 225.820,390.621 224.978 C 390.621 223.908,390.702 223.724,391.172 223.724 C 391.642 223.724,391.724 223.540,391.724 222.483 C 391.724 221.343,391.780 221.241,392.414 221.241 C 393.047 221.241,393.103 221.140,393.103 220.000 C 393.103 219.069,393.209 218.759,393.526 218.759 C 394.109 218.759,394.419 217.875,394.462 216.088 C 394.477 215.463,394.642 215.159,395.034 215.034 C 395.511 214.883,395.586 214.617,395.586 213.085 C 395.586 211.393,395.705 211.155,396.483 211.278 C 396.740 211.318,396.704 211.494,396.869 209.394 C 396.962 208.221,397.157 207.507,397.444 207.297 C 397.926 206.945,398.012 206.462,398.046 203.931 C 398.064 202.580,398.160 202.207,398.490 202.207 C 399.195 202.207,399.424 201.014,399.429 197.327 C 399.431 195.161,399.543 193.762,399.717 193.704 C 400.087 193.580,400.111 172.499,399.740 172.368 C 399.598 172.317,399.455 170.662,399.423 168.690 C 399.362 164.877,399.166 163.862,398.490 163.862 C 398.144 163.862,398.069 163.418,398.069 161.353 C 398.069 159.096,398.015 158.831,397.530 158.704 C 397.081 158.586,396.977 158.279,396.909 156.868 C 396.839 155.415,396.739 155.133,396.207 154.900 C 395.658 154.659,395.586 154.427,395.586 152.900 C 395.586 151.356,395.527 151.172,395.034 151.172 C 394.592 151.172,394.483 150.989,394.483 150.241 C 394.483 148.609,394.152 147.520,393.613 147.379 C 393.215 147.275,393.103 146.981,393.103 146.037 C 393.103 145.372,393.010 144.842,392.897 144.860 C 391.925 145.014,391.724 144.796,391.724 143.586 C 391.724 142.529,391.642 142.345,391.172 142.345 C 390.647 142.345,390.429 141.528,390.600 140.207 C 390.626 140.010,390.344 139.862,389.943 139.862 C 389.295 139.862,389.241 139.767,389.241 138.621 C 389.241 137.575,389.157 137.379,388.706 137.379 C 388.272 137.379,388.153 137.155,388.085 136.207 C 388.014 135.232,387.895 135.020,387.379 134.946 C 386.930 134.883,386.759 134.673,386.759 134.188 C 386.759 133.708,386.606 133.517,386.223 133.517 C 385.790 133.517,385.671 133.293,385.602 132.345 C 385.533 131.385,385.417 131.172,384.966 131.172 C 384.603 131.172,384.383 130.959,384.326 130.551 C 384.277 130.209,384.012 129.809,383.737 129.662 C 383.462 129.515,383.157 128.970,383.060 128.452 C 382.944 127.836,382.694 127.460,382.338 127.367 C 382.014 127.282,381.793 126.990,381.793 126.647 C 381.793 126.260,381.617 126.069,381.261 126.069 C 380.918 126.069,380.697 125.847,380.640 125.448 C 380.583 125.049,380.330 124.796,379.931 124.739 C 379.465 124.673,379.309 124.467,379.306 123.912 C 379.301 123.036,379.070 122.644,378.414 122.402 C 378.148 122.304,377.931 121.972,377.931 121.664 C 377.931 121.294,377.750 121.103,377.398 121.103 C 377.056 121.103,376.834 120.882,376.778 120.483 C 376.721 120.084,376.468 119.831,376.069 119.774 C 375.644 119.714,375.447 119.496,375.444 119.084 C 375.441 118.595,375.390 118.560,375.172 118.897 C 374.978 119.197,374.904 119.212,374.901 118.949 C 374.898 118.751,374.772 118.665,374.621 118.759 C 374.382 118.906,374.215 118.352,374.311 117.729 C 374.328 117.618,374.032 117.449,373.654 117.354 C 373.223 117.246,372.966 116.986,372.966 116.660 C 372.966 116.328,372.771 116.138,372.433 116.138 C 372.091 116.138,371.869 115.916,371.812 115.517 C 371.756 115.118,371.502 114.865,371.103 114.808 C 370.719 114.754,370.483 114.529,370.483 114.218 C 370.483 113.912,370.213 113.647,369.793 113.542 C 369.348 113.430,369.103 113.175,369.103 112.822 C 369.103 112.430,368.917 112.276,368.446 112.276 C 368.007 112.276,367.737 112.080,367.635 111.688 C 367.532 111.296,367.338 111.156,367.051 111.266 C 366.814 111.357,366.621 111.311,366.621 111.164 C 366.621 111.017,366.372 110.897,366.069 110.897 C 365.701 110.897,365.517 110.713,365.517 110.345 C 365.517 109.940,365.333 109.793,364.828 109.793 C 364.197 109.793,363.977 109.436,364.105 108.621 C 364.123 108.507,363.904 108.414,363.618 108.414 C 363.331 108.414,363.034 108.167,362.955 107.862 C 362.840 107.426,362.578 107.310,361.700 107.310 C 360.759 107.310,360.577 107.216,360.502 106.690 C 360.453 106.348,360.259 106.053,360.069 106.034 C 359.879 106.016,359.600 105.984,359.448 105.966 C 359.297 105.947,359.172 105.683,359.172 105.379 C 359.172 104.909,358.989 104.828,357.931 104.828 C 356.791 104.828,356.690 104.771,356.690 104.138 C 356.690 103.595,356.550 103.448,356.032 103.448 C 355.607 103.448,355.324 103.254,355.230 102.897 C 355.098 102.389,354.850 102.297,353.448 102.230 C 353.183 102.217,352.899 101.959,352.817 101.655 C 352.703 101.234,352.393 101.083,351.506 101.019 C 350.460 100.942,350.290 100.826,350.368 100.238 C 350.413 99.902,349.650 99.595,348.759 99.590 C 347.951 99.587,347.723 99.365,347.829 98.690 C 347.847 98.576,347.303 98.483,346.621 98.483 C 345.724 98.483,345.379 98.372,345.379 98.085 C 345.379 97.542,344.931 97.309,343.754 97.239 C 343.207 97.207,342.493 97.163,342.169 97.142 C 341.789 97.117,341.592 96.932,341.617 96.621 C 341.647 96.242,341.401 96.120,340.479 96.053 C 339.679 95.995,339.088 95.753,338.630 95.294 C 338.113 94.778,337.664 94.621,336.702 94.621 C 335.816 94.621,335.286 94.459,334.897 94.069 C 334.443 93.615,333.977 93.517,332.276 93.517 C 330.643 93.517,330.207 93.432,330.207 93.113 C 330.207 92.461,329.263 92.138,327.359 92.138 L 325.579 92.138 325.392 91.142 C 325.269 90.486,325.022 90.098,324.671 90.006 C 324.341 89.920,324.138 89.628,324.138 89.239 C 324.138 88.800,323.931 88.560,323.448 88.438 C 322.861 88.291,322.759 88.106,322.759 87.199 C 322.759 86.365,322.639 86.102,322.207 85.989 C 321.877 85.903,321.655 85.613,321.655 85.267 C 321.655 84.835,321.482 84.690,320.966 84.690 C 320.347 84.690,320.276 84.578,320.276 83.605 C 320.276 82.774,320.151 82.480,319.742 82.350 C 319.448 82.257,319.168 81.907,319.121 81.573 C 319.066 81.187,318.808 80.933,318.414 80.877 C 318.072 80.829,317.793 80.600,317.793 80.369 C 317.793 80.138,317.545 79.883,317.241 79.804 C 316.884 79.711,316.690 79.428,316.690 79.002 C 316.690 78.485,316.543 78.345,316.000 78.345 C 315.421 78.345,315.310 78.215,315.310 77.537 C 315.310 76.755,314.711 75.862,314.187 75.862 C 314.046 75.862,313.931 75.614,313.931 75.310 C 313.931 74.949,313.747 74.759,313.398 74.759 C 313.056 74.759,312.834 74.537,312.778 74.138 C 312.721 73.739,312.468 73.486,312.069 73.429 C 311.670 73.372,311.448 73.151,311.448 72.808 C 311.448 72.466,311.258 72.276,310.916 72.276 C 310.574 72.276,310.352 72.054,310.295 71.655 C 310.238 71.256,309.985 71.003,309.586 70.946 C 309.187 70.890,308.966 70.668,308.966 70.326 C 308.966 70.021,308.776 69.793,308.523 69.793 C 308.279 69.793,307.711 69.483,307.260 69.103 C 306.809 68.724,306.202 68.414,305.910 68.414 C 305.528 68.414,305.379 68.221,305.379 67.724 C 305.379 67.172,305.241 67.034,304.690 67.034 C 304.184 67.034,304.000 66.887,304.000 66.483 C 304.000 66.125,303.816 65.931,303.478 65.931 C 303.152 65.931,302.892 65.673,302.783 65.241 C 302.688 64.862,302.481 64.552,302.323 64.552 C 302.166 64.552,302.130 64.707,302.244 64.897 C 302.538 65.386,301.466 64.530,300.999 63.903 C 300.693 63.492,300.573 63.465,300.383 63.765 C 300.208 64.040,300.145 64.048,300.142 63.793 C 300.140 63.603,299.890 63.448,299.586 63.448 C 299.182 63.448,299.034 63.264,299.034 62.759 C 299.034 62.226,298.892 62.069,298.411 62.069 C 298.068 62.069,297.642 61.836,297.465 61.552 C 297.287 61.267,296.699 60.951,296.157 60.849 C 295.427 60.712,295.172 60.525,295.172 60.125 C 295.172 59.672,294.979 59.586,293.950 59.586 C 292.893 59.586,292.716 59.503,292.640 58.966 C 292.567 58.450,292.354 58.331,291.379 58.260 C 290.431 58.191,290.207 58.073,290.207 57.639 C 290.207 57.271,290.017 57.103,289.601 57.103 C 289.268 57.103,288.628 56.762,288.179 56.345 C 287.730 55.928,287.462 55.772,287.584 56.000 C 287.764 56.336,287.735 56.349,287.434 56.069 C 287.229 55.879,286.652 55.724,286.152 55.724 C 285.425 55.724,285.241 55.613,285.241 55.172 C 285.241 54.702,285.057 54.621,284.000 54.621 C 282.947 54.621,282.759 54.538,282.759 54.074 C 282.759 53.515,281.934 53.144,280.926 53.251 C 279.498 53.402,278.897 53.235,278.897 52.690 C 278.897 52.197,278.713 52.138,277.169 52.138 C 275.642 52.138,275.410 52.066,275.169 51.517 C 274.923 50.957,274.677 50.889,272.636 50.817 C 270.680 50.748,270.352 50.665,270.205 50.202 C 270.112 49.907,269.950 49.679,269.845 49.693 C 268.258 49.919,263.724 49.592,263.724 49.251 C 263.724 48.352,262.693 48.276,250.570 48.280 C 238.170 48.284,237.954 48.301,237.719 49.241 C 237.643 49.545,237.567 49.203,237.549 48.483 C 237.522 47.367,237.435 47.172,236.966 47.172 C 236.502 47.172,236.414 46.989,236.414 46.023 C 236.414 45.391,236.341 44.946,236.253 45.034 C 235.917 45.370,235.034 44.103,235.034 43.285 C 235.034 42.663,234.884 42.392,234.483 42.287 C 234.126 42.193,233.931 41.911,233.931 41.485 C 233.931 40.968,233.784 40.828,233.241 40.828 C 232.565 40.828,232.338 40.137,232.535 38.674 C 232.562 38.471,232.373 38.350,232.103 38.398 C 231.783 38.454,231.567 38.253,231.455 37.793 C 231.350 37.360,231.061 37.071,230.678 37.015 C 230.188 36.944,230.069 36.746,230.069 35.996 C 230.069 35.413,229.882 34.931,229.568 34.705 C 229.293 34.507,228.986 34.128,228.887 33.862 C 228.788 33.597,228.455 33.379,228.147 33.379 C 227.733 33.379,227.586 33.199,227.586 32.690 C 227.586 32.138,227.448 32.000,226.897 32.000 C 226.342 32.000,226.207 31.863,226.207 31.298 C 226.207 30.788,226.078 30.619,225.734 30.678 C 225.439 30.728,225.228 30.552,225.172 30.207 C 224.922 28.669,224.793 28.414,224.271 28.414 C 223.900 28.414,223.724 28.228,223.724 27.836 C 223.724 27.500,223.504 27.201,223.198 27.121 C 222.908 27.045,222.607 26.737,222.529 26.437 C 222.450 26.136,222.128 25.823,221.814 25.740 C 221.490 25.656,221.241 25.365,221.241 25.071 C 221.241 24.751,221.047 24.552,220.734 24.552 C 220.455 24.552,220.085 24.241,219.912 23.862 C 219.739 23.483,219.424 23.172,219.211 23.172 C 218.997 23.172,218.758 22.924,218.679 22.621 C 218.599 22.317,218.342 22.069,218.107 22.069 C 217.872 22.069,217.370 21.759,216.991 21.379 C 216.611 21.000,216.047 20.690,215.737 20.690 C 215.351 20.690,215.172 20.510,215.172 20.122 C 215.172 19.809,215.048 19.630,214.897 19.724 C 214.745 19.818,214.621 19.763,214.621 19.602 C 214.621 19.442,214.434 19.310,214.207 19.310 C 213.977 19.310,213.793 19.065,213.793 18.759 C 213.793 18.354,213.609 18.207,213.103 18.207 C 212.611 18.207,212.414 18.058,212.414 17.685 C 212.414 17.166,211.265 16.653,210.777 16.954 C 210.649 17.033,210.562 16.889,210.583 16.635 C 210.607 16.337,210.306 16.080,209.739 15.913 C 209.159 15.742,208.828 15.453,208.773 15.071 C 208.727 14.749,208.444 14.442,208.141 14.384 C 207.839 14.326,207.428 14.045,207.229 13.760 C 206.995 13.427,206.533 13.241,205.935 13.241 C 205.179 13.241,204.987 13.124,204.916 12.621 C 204.848 12.147,204.632 11.990,204.000 11.956 C 203.545 11.932,203.032 11.901,202.860 11.887 C 202.688 11.873,202.482 11.614,202.403 11.310 C 202.304 10.933,202.027 10.759,201.523 10.759 C 200.764 10.759,200.000 10.206,200.000 9.658 C 200.000 9.485,199.783 9.367,199.517 9.394 C 198.109 9.537,197.517 9.369,197.517 8.828 C 197.517 8.359,197.333 8.276,196.295 8.276 C 195.256 8.276,195.060 8.187,194.985 7.683 C 194.915 7.215,194.667 7.067,193.801 6.980 C 192.820 6.880,192.444 6.649,192.211 6.003 C 192.171 5.890,191.362 5.718,190.414 5.619 C 188.982 5.469,188.690 5.352,188.690 4.926 C 188.690 4.476,188.456 4.414,186.759 4.414 C 185.018 4.414,184.828 4.360,184.828 3.867 C 184.828 3.195,183.932 2.931,182.225 3.102 C 181.004 3.224,179.332 2.553,179.768 2.117 C 179.870 2.015,178.760 1.931,177.301 1.931 C 175.363 1.931,174.589 1.830,174.428 1.558 C 173.864 0.604,173.154 0.558,159.196 0.567 C 150.040 0.573,145.379 0.671,145.379 0.856 M187.310 113.241 C 187.690 113.458,188.383 113.640,188.851 113.645 C 189.762 113.656,192.276 115.384,192.276 116.000 C 192.276 116.187,192.539 116.674,192.861 117.083 C 193.271 117.605,193.489 118.374,193.593 119.665 C 193.674 120.677,193.896 121.660,194.087 121.850 C 194.452 122.216,194.622 123.108,194.905 126.138 C 195.000 127.162,195.178 128.000,195.300 128.000 C 195.674 128.000,196.138 130.356,196.138 132.260 C 196.138 133.255,196.252 134.069,196.392 134.069 C 196.789 134.069,197.176 135.659,197.351 138.005 C 197.449 139.317,197.693 140.425,197.979 140.862 C 198.295 141.345,198.485 142.349,198.565 143.960 C 198.645 145.561,198.822 146.502,199.104 146.822 C 199.370 147.125,199.613 148.278,199.770 149.986 C 200.138 153.990,199.954 153.877,206.262 153.983 C 210.734 154.059,211.399 154.128,211.708 154.552 C 211.902 154.817,212.226 155.034,212.428 155.034 C 212.938 155.034,214.896 157.185,214.898 157.747 C 214.899 158.000,215.147 158.579,215.448 159.034 C 216.311 160.337,216.311 210.049,215.448 211.658 C 215.145 212.224,214.897 212.854,214.897 213.057 C 214.897 213.870,212.168 216.049,210.956 216.203 C 210.317 216.284,209.619 216.489,209.406 216.658 C 209.163 216.851,206.860 217.017,203.199 217.103 L 197.379 217.241 197.241 223.903 C 197.121 229.738,197.044 230.630,196.621 231.097 C 196.355 231.390,196.138 231.778,196.138 231.960 C 196.138 232.141,195.768 232.364,195.317 232.454 C 194.865 232.544,194.353 232.789,194.179 232.999 C 193.700 233.576,180.198 233.554,179.432 232.974 C 179.138 232.752,178.703 232.565,178.466 232.560 C 176.995 232.531,176.699 231.204,176.552 224.000 L 176.414 217.241 156.207 217.171 L 136.000 217.100 136.000 224.221 C 136.000 233.807,136.622 233.241,126.069 233.241 C 115.486 233.241,116.147 233.860,116.142 223.955 L 116.138 217.152 110.387 217.059 C 106.709 216.999,104.496 216.855,104.249 216.658 C 104.036 216.489,103.334 216.283,102.689 216.201 C 101.468 216.046,98.759 213.866,98.759 213.039 C 98.759 212.835,98.510 212.181,98.207 211.586 C 97.489 210.179,97.324 160.323,98.034 159.303 C 98.242 159.003,98.501 158.351,98.609 157.853 C 98.718 157.354,99.106 156.751,99.472 156.511 C 99.838 156.271,100.138 155.915,100.138 155.719 C 100.138 155.524,100.479 155.224,100.897 155.053 C 101.314 154.882,101.966 154.561,102.345 154.340 C 102.874 154.033,104.128 153.938,107.732 153.935 C 113.685 153.930,113.544 154.007,113.704 150.664 C 113.783 149.011,113.971 147.981,114.277 147.513 C 114.551 147.095,114.842 145.747,115.007 144.136 C 115.166 142.583,115.446 141.265,115.673 141.003 C 115.910 140.730,116.135 139.593,116.242 138.121 C 116.358 136.536,116.610 135.317,116.968 134.615 C 117.358 133.852,117.517 132.992,117.517 131.656 C 117.517 130.368,117.679 129.455,118.027 128.771 C 118.326 128.186,118.616 126.816,118.727 125.472 C 118.845 124.052,119.124 122.773,119.459 122.129 C 119.770 121.530,120.002 120.533,120.004 119.785 C 120.006 119.069,120.187 118.172,120.406 117.793 C 120.625 117.414,120.940 116.800,121.106 116.428 C 121.695 115.108,123.236 113.910,124.625 113.690 C 125.344 113.576,126.180 113.340,126.483 113.164 C 127.387 112.640,186.390 112.715,187.310 113.241 M132.057 129.685 C 131.948 131.360,131.754 132.352,131.473 132.663 C 131.202 132.962,130.963 134.088,130.804 135.812 C 130.649 137.502,130.404 138.671,130.141 138.971 C 129.868 139.285,129.676 140.278,129.582 141.864 C 129.493 143.376,129.279 144.526,129.009 144.938 C 128.763 145.314,128.460 146.747,128.303 148.278 C 128.129 149.985,127.873 151.131,127.601 151.432 C 127.365 151.693,127.172 152.362,127.172 152.920 L 127.172 153.934 156.759 153.863 L 186.345 153.793 186.434 153.019 C 186.482 152.593,186.272 151.766,185.967 151.180 C 185.603 150.482,185.347 149.274,185.223 147.678 C 185.108 146.198,184.877 145.062,184.636 144.786 C 184.399 144.514,184.138 143.264,183.989 141.684 C 183.851 140.228,183.557 138.757,183.335 138.415 C 183.112 138.071,182.844 136.706,182.736 135.360 C 182.618 133.881,182.341 132.533,182.029 131.923 C 181.725 131.325,181.517 130.336,181.517 129.481 C 181.517 128.691,181.442 127.849,181.350 127.609 C 181.199 127.215,178.770 127.172,156.701 127.172 L 132.220 127.172 132.057 129.685 M124.966 172.339 C 124.586 172.408,124.090 172.624,123.862 172.820 C 123.634 173.016,123.138 173.267,122.759 173.379 C 122.159 173.555,120.823 174.821,118.892 177.044 C 117.460 178.693,118.647 186.759,120.322 186.759 C 120.448 186.759,120.552 186.936,120.552 187.154 C 120.552 187.371,120.800 187.628,121.104 187.724 C 121.407 187.821,121.776 188.125,121.924 188.400 C 122.090 188.711,122.651 188.970,123.403 189.082 C 124.070 189.182,124.849 189.441,125.135 189.658 C 125.800 190.161,127.710 190.166,128.370 189.666 C 128.650 189.455,129.374 189.198,129.979 189.095 C 131.032 188.917,132.339 187.825,134.483 185.331 C 135.365 184.305,135.312 177.794,134.414 176.897 C 134.072 176.555,133.793 176.166,133.793 176.033 C 133.793 175.585,132.012 174.013,130.897 173.477 C 130.290 173.185,129.483 172.767,129.103 172.546 C 128.447 172.165,126.464 172.066,124.966 172.339 M184.967 172.325 C 184.664 172.410,184.120 172.714,183.757 172.999 C 183.395 173.284,182.915 173.517,182.691 173.517 C 182.064 173.517,179.586 175.830,179.586 176.417 C 179.586 176.632,179.338 176.941,179.034 177.103 C 178.526 177.375,178.483 177.681,178.483 180.978 C 178.483 184.216,178.535 184.602,179.034 185.030 C 179.338 185.289,179.586 185.642,179.586 185.813 C 179.586 186.494,182.625 188.918,183.708 189.101 C 184.296 189.200,185.005 189.455,185.285 189.666 C 185.940 190.163,187.853 190.163,188.508 189.666 C 188.788 189.455,189.508 189.198,190.109 189.097 C 190.947 188.955,191.536 188.565,192.636 187.422 C 195.393 184.554,195.172 185.104,195.172 181.103 C 195.172 177.118,195.354 177.589,192.774 174.878 C 192.062 174.130,191.303 173.517,191.087 173.517 C 190.872 173.517,190.357 173.252,189.945 172.927 C 189.181 172.326,186.228 171.969,184.967 172.325 " stroke="none" fill="#f3fb04" fill-rule="evenodd"></path><path id="path2" d="M125.012 113.929 C 122.871 114.435,120.237 117.993,120.313 120.276 L 120.345 121.241 120.545 120.138 C 120.979 117.744,122.238 115.750,124.075 114.546 C 124.751 114.103,127.043 114.059,156.264 113.927 L 187.724 113.785 156.828 113.748 C 139.834 113.728,125.518 113.809,125.012 113.929 M188.609 114.198 C 190.541 114.657,192.596 117.386,193.113 120.178 L 193.361 121.517 193.248 120.097 C 193.033 117.378,190.296 113.886,188.437 113.959 C 187.794 113.985,187.811 114.008,188.609 114.198 M119.650 123.531 C 119.382 124.396,119.173 125.352,119.187 125.655 C 119.200 125.959,119.455 125.351,119.754 124.305 C 120.415 121.983,120.330 121.340,119.650 123.531 M193.497 122.621 C 193.752 124.330,194.436 126.528,194.441 125.655 C 194.444 125.200,194.205 124.145,193.910 123.310 C 193.615 122.476,193.429 122.166,193.497 122.621 M132.850 126.309 C 132.408 126.404,131.989 126.669,131.919 126.897 C 131.817 127.231,131.864 127.244,132.159 126.966 C 132.445 126.695,137.764 126.621,156.828 126.621 C 175.891 126.621,181.210 126.695,181.497 126.966 C 181.792 127.244,181.838 127.231,181.736 126.897 C 181.514 126.168,180.399 126.134,156.828 126.134 C 144.083 126.134,133.293 126.213,132.850 126.309 M118.926 127.448 C 118.896 127.979,118.692 128.910,118.472 129.517 C 118.252 130.124,118.015 131.303,117.947 132.138 C 117.879 132.972,117.882 133.345,117.955 132.966 C 118.027 132.586,118.339 131.308,118.647 130.125 C 118.955 128.942,119.155 127.638,119.093 127.228 C 118.995 126.589,118.972 126.620,118.926 127.448 M194.502 127.586 C 194.493 127.890,194.734 128.945,195.038 129.931 C 195.343 130.917,195.530 131.290,195.453 130.759 C 195.254 129.371,194.523 126.932,194.502 127.586 M131.628 128.335 C 131.605 128.747,131.392 129.655,131.155 130.353 C 130.918 131.051,130.770 131.760,130.827 131.928 C 131.011 132.481,131.905 129.158,131.786 128.363 L 131.669 127.586 131.628 128.335 M181.834 128.690 C 181.836 129.527,182.844 132.627,182.865 131.862 C 182.872 131.634,182.642 130.641,182.355 129.655 C 181.991 128.406,181.833 128.113,181.834 128.690 M195.656 132.828 C 195.659 133.434,195.715 133.650,195.781 133.307 C 195.847 132.964,195.845 132.467,195.776 132.204 C 195.707 131.940,195.653 132.221,195.656 132.828 M130.547 133.517 C 130.547 134.048,130.604 134.266,130.673 134.000 C 130.742 133.734,130.742 133.300,130.673 133.034 C 130.604 132.769,130.547 132.986,130.547 133.517 M182.966 133.655 C 182.969 134.262,183.026 134.478,183.092 134.135 C 183.158 133.792,183.155 133.295,183.086 133.031 C 183.017 132.768,182.963 133.048,182.966 133.655 M130.240 135.172 C 130.218 135.552,130.016 136.388,129.792 137.030 C 129.568 137.672,129.326 138.914,129.254 139.788 L 129.123 141.379 129.374 140.000 C 129.513 139.241,129.828 137.976,130.076 137.187 C 130.323 136.398,130.470 135.467,130.403 135.118 C 130.286 134.502,130.281 134.503,130.240 135.172 M183.297 135.862 C 183.472 137.105,184.236 139.530,184.253 138.897 C 184.262 138.593,184.024 137.600,183.724 136.690 C 183.425 135.779,183.233 135.407,183.297 135.862 M116.984 136.457 C 116.821 137.040,116.630 138.200,116.560 139.034 L 116.433 140.552 116.682 139.172 C 116.819 138.414,117.083 137.327,117.269 136.757 C 117.455 136.188,117.533 135.648,117.444 135.559 C 117.355 135.470,117.148 135.874,116.984 136.457 M196.297 136.138 C 196.972 139.015,196.955 138.968,196.822 137.566 C 196.752 136.835,196.562 136.028,196.399 135.773 C 196.168 135.412,196.146 135.493,196.297 136.138 M196.988 140.138 C 196.980 140.517,197.224 141.572,197.531 142.483 C 197.894 143.563,198.037 143.803,197.943 143.172 C 197.704 141.583,197.005 139.360,196.988 140.138 M184.316 141.103 C 184.317 141.559,184.559 142.552,184.852 143.310 C 185.438 144.826,185.362 143.954,184.706 141.655 C 184.394 140.559,184.314 140.446,184.316 141.103 M115.789 142.553 C 115.526 143.440,115.325 144.469,115.342 144.841 C 115.369 145.396,115.396 145.418,115.496 144.966 C 115.562 144.662,115.810 143.772,116.046 142.988 C 116.282 142.204,116.428 141.423,116.371 141.252 C 116.314 141.081,116.052 141.666,115.789 142.553 M128.438 143.488 C 128.161 144.495,128.001 145.488,128.083 145.694 C 128.169 145.910,128.242 145.808,128.254 145.454 C 128.266 145.116,128.473 144.347,128.713 143.746 C 128.953 143.145,129.103 142.429,129.046 142.154 C 128.989 141.880,128.716 142.480,128.438 143.488 M198.139 145.241 C 198.142 145.848,198.198 146.064,198.264 145.721 C 198.330 145.378,198.328 144.881,198.259 144.617 C 198.189 144.354,198.135 144.634,198.139 145.241 M185.412 146.080 C 185.394 146.541,185.581 147.658,185.828 148.563 C 186.075 149.467,186.371 150.641,186.486 151.172 C 186.671 152.026,186.699 152.051,186.727 151.389 C 186.744 150.977,186.574 150.097,186.349 149.433 C 186.124 148.770,185.828 147.555,185.692 146.734 C 185.528 145.746,185.433 145.525,185.412 146.080 M115.076 146.836 C 115.053 147.259,114.848 148.050,114.621 148.594 C 114.393 149.139,114.218 149.849,114.232 150.172 C 114.246 150.494,114.495 150.014,114.786 149.103 C 115.077 148.193,115.270 147.138,115.216 146.759 C 115.122 146.104,115.115 146.108,115.076 146.836 M198.367 146.931 C 198.355 147.253,198.531 148.045,198.759 148.690 C 198.986 149.335,199.189 150.188,199.210 150.586 C 199.245 151.257,199.257 151.263,199.369 150.675 C 199.469 150.152,199.206 148.958,198.475 146.621 C 198.427 146.469,198.379 146.609,198.367 146.931 M127.241 149.569 C 126.499 152.765,126.448 154.082,127.057 154.315 C 127.963 154.663,186.353 154.503,186.703 154.152 C 186.886 153.970,187.018 153.442,186.998 152.979 C 186.962 152.144,186.961 152.145,186.791 153.103 L 186.621 154.069 156.828 154.069 L 127.034 154.069 127.063 152.538 C 127.078 151.696,127.305 150.365,127.566 149.579 C 127.827 148.794,128.000 147.869,127.951 147.524 C 127.902 147.179,127.583 148.099,127.241 149.569 M113.892 152.213 C 113.682 154.157,113.975 154.049,108.461 154.224 C 101.440 154.447,99.580 155.456,98.642 159.551 C 98.011 162.301,97.994 208.754,98.622 210.897 C 98.845 211.655,98.948 211.841,98.851 211.310 C 98.495 209.361,98.422 162.466,98.771 160.414 C 99.569 155.730,101.694 154.483,108.875 154.483 C 113.860 154.483,114.569 154.071,114.152 151.415 C 114.093 151.045,113.980 151.392,113.892 152.213 M199.512 152.276 C 199.512 152.807,199.569 153.024,199.638 152.759 C 199.708 152.493,199.708 152.059,199.638 151.793 C 199.569 151.528,199.512 151.745,199.512 152.276 M205.241 154.482 C 207.745 154.578,210.041 154.743,210.345 154.849 C 210.648 154.956,210.524 154.860,210.069 154.637 C 209.437 154.328,208.230 154.241,204.966 154.270 L 200.690 154.308 205.241 154.482 M211.724 155.444 C 212.547 155.806,213.707 156.938,214.296 157.952 C 214.465 158.244,214.608 158.341,214.612 158.168 C 214.636 157.275,212.155 154.994,211.228 155.057 C 211.046 155.069,211.269 155.243,211.724 155.444 M214.829 159.724 C 215.102 161.374,215.095 209.166,214.821 210.759 L 214.608 212.000 215.024 210.897 C 215.642 209.258,215.648 161.954,215.031 159.862 L 214.624 158.483 214.829 159.724 M124.690 171.874 C 124.093 172.006,124.515 172.032,125.793 171.939 C 126.931 171.857,127.914 171.744,127.977 171.688 C 128.178 171.510,125.694 171.650,124.690 171.874 M185.678 171.688 C 185.741 171.744,186.724 171.859,187.862 171.944 C 189.396 172.058,189.646 172.036,188.828 171.858 C 187.723 171.618,185.462 171.496,185.678 171.688 M122.132 172.808 C 120.476 173.791,117.706 176.832,118.103 177.230 C 118.167 177.293,118.520 176.888,118.887 176.328 C 119.989 174.648,120.895 173.777,122.276 173.073 C 122.997 172.705,123.586 172.345,123.586 172.271 C 123.586 172.033,123.192 172.178,122.132 172.808 M129.931 172.271 C 129.931 172.345,130.532 172.709,131.266 173.081 C 132.409 173.660,133.142 174.339,134.638 176.203 C 134.788 176.391,135.025 176.826,135.163 177.169 C 135.300 177.512,135.421 177.614,135.431 177.394 C 135.476 176.360,133.273 173.926,131.235 172.759 C 130.109 172.114,129.931 172.048,129.931 172.271 M182.322 172.785 C 180.150 174.092,177.903 176.799,177.955 178.047 C 177.974 178.516,178.019 178.487,178.200 177.887 C 178.741 176.097,180.478 174.162,182.759 172.809 C 183.366 172.450,183.738 172.163,183.586 172.173 C 183.434 172.182,182.866 172.458,182.322 172.785 M190.582 172.699 C 190.940 172.997,191.398 173.241,191.600 173.241 C 192.124 173.241,193.468 174.536,194.606 176.137 C 195.145 176.895,195.586 177.372,195.586 177.196 C 195.586 176.362,193.081 173.717,191.364 172.737 C 190.065 171.996,189.719 171.979,190.582 172.699 M117.536 179.352 C 117.258 180.823,117.258 181.491,117.536 182.733 C 117.971 184.676,118.200 184.559,117.836 182.579 C 117.659 181.618,117.658 180.591,117.833 179.635 C 117.981 178.827,118.052 178.020,117.992 177.842 C 117.932 177.663,117.727 178.343,117.536 179.352 M135.653 178.897 C 135.894 180.296,135.882 181.935,135.622 183.172 L 135.419 184.138 135.847 183.210 C 136.367 182.084,136.367 180.383,135.848 178.897 L 135.463 177.793 135.653 178.897 M195.780 179.172 C 196.003 180.897,196.003 181.321,195.776 183.034 L 195.594 184.414 195.998 183.034 C 196.493 181.351,196.490 180.339,195.987 178.897 L 195.602 177.793 195.780 179.172 M177.553 179.379 C 177.135 180.938,177.826 184.869,178.713 185.977 C 180.304 187.966,181.229 188.772,182.794 189.535 C 183.778 190.014,184.642 190.347,184.714 190.275 C 184.785 190.203,184.191 189.863,183.391 189.519 C 179.524 187.855,177.221 183.910,177.813 179.963 C 178.003 178.696,177.837 178.322,177.553 179.379 M135.172 184.811 C 135.172 185.106,135.049 185.423,134.898 185.516 C 134.747 185.610,134.488 185.958,134.322 186.291 C 134.116 186.704,134.244 186.634,134.724 186.069 C 135.345 185.339,135.693 184.276,135.310 184.276 C 135.234 184.276,135.172 184.517,135.172 184.811 M195.332 184.761 C 195.273 185.701,191.915 189.239,191.077 189.243 C 190.902 189.244,190.386 189.449,189.931 189.699 C 189.476 189.948,188.172 190.239,187.034 190.345 L 184.966 190.537 186.698 190.579 C 190.188 190.663,196.259 186.618,195.482 184.727 C 195.396 184.516,195.347 184.527,195.332 184.761 M118.069 184.909 C 118.069 185.516,120.117 187.994,121.241 188.745 C 121.893 189.181,121.840 189.085,120.993 188.295 C 120.401 187.742,119.501 186.706,118.993 185.991 C 118.485 185.276,118.069 184.789,118.069 184.909 M132.823 187.975 C 130.210 190.167,126.430 190.935,123.901 189.787 C 122.274 189.049,121.749 189.109,123.310 189.854 C 126.235 191.250,130.405 190.498,133.060 188.095 C 134.487 186.804,134.320 186.719,132.823 187.975 M101.441 215.193 C 101.778 215.544,102.123 215.762,102.208 215.677 C 102.293 215.592,102.017 215.305,101.595 215.039 L 100.828 214.554 101.441 215.193 M211.824 215.163 C 211.465 215.462,211.308 215.710,211.474 215.715 C 211.641 215.720,212.001 215.476,212.276 215.172 C 212.915 214.466,212.666 214.461,211.824 215.163 M103.080 216.000 C 103.156 216.076,106.181 216.200,109.803 216.276 C 113.425 216.352,116.301 216.332,116.194 216.232 C 115.971 216.022,102.871 215.791,103.080 216.000 M203.108 215.931 L 196.974 216.011 196.556 216.819 C 196.218 217.473,196.138 218.854,196.136 224.055 C 196.135 229.134,196.051 230.644,195.734 231.250 C 195.514 231.673,195.445 231.950,195.580 231.866 C 196.514 231.289,196.690 229.989,196.690 223.664 C 196.690 215.457,195.992 216.279,202.975 216.260 C 206.118 216.251,209.186 216.141,209.793 216.016 C 210.642 215.840,210.705 215.795,210.069 215.819 C 209.614 215.837,206.481 215.887,203.108 215.931 M135.905 216.207 C 135.834 216.321,144.954 216.381,156.170 216.341 L 176.563 216.269 176.833 216.980 C 176.982 217.371,177.103 220.434,177.103 223.787 C 177.103 230.899,177.307 231.801,179.019 232.276 C 180.088 232.573,193.393 232.609,194.434 232.317 C 194.787 232.219,191.735 232.178,187.652 232.227 C 176.667 232.358,177.412 232.998,177.393 223.399 C 177.381 217.841,177.315 216.802,176.946 216.433 C 176.479 215.966,136.191 215.744,135.905 216.207 M135.568 223.586 C 135.568 227.379,135.607 228.969,135.654 227.120 C 135.702 225.270,135.702 222.166,135.655 220.223 C 135.607 218.280,135.568 219.793,135.568 223.586 M116.472 223.637 C 116.389 233.219,115.666 232.552,126.129 232.551 C 133.747 232.551,135.060 232.356,135.395 231.172 C 135.483 230.859,135.420 230.873,135.135 231.229 C 133.935 232.728,118.985 232.826,116.913 231.348 C 116.884 231.327,116.786 228.083,116.695 224.138 L 116.529 216.966 116.472 223.637 " stroke="none" fill="#878c04" fill-rule="evenodd"></path><path id="path3" d="M125.023 114.203 C 122.775 114.735,120.843 117.587,120.429 120.982 C 120.319 121.883,119.991 123.487,119.701 124.546 C 119.410 125.605,119.172 126.829,119.172 127.265 C 119.172 127.701,118.971 128.821,118.724 129.753 C 118.282 131.426,117.617 134.737,116.804 139.310 C 116.575 140.600,116.207 142.276,115.985 143.034 C 115.764 143.793,115.468 145.283,115.327 146.345 C 115.186 147.407,114.930 148.710,114.758 149.241 C 114.586 149.772,114.339 151.009,114.208 151.989 C 113.879 154.452,113.815 154.483,108.942 154.483 C 104.067 154.483,101.856 155.007,100.519 156.479 C 98.455 158.752,98.501 158.085,98.507 185.103 C 98.513 213.624,98.442 212.949,101.635 215.089 L 102.759 215.843 109.467 215.953 L 116.176 216.063 116.433 216.739 C 116.574 217.111,116.691 220.293,116.693 223.811 C 116.699 233.035,115.864 232.276,126.001 232.276 C 136.273 232.276,135.448 233.010,135.448 223.862 C 135.448 219.706,135.559 216.860,135.734 216.534 C 136.135 215.784,176.199 215.686,176.946 216.433 C 177.315 216.802,177.381 217.841,177.393 223.399 C 177.412 232.996,176.672 232.358,187.622 232.227 C 196.996 232.114,195.962 233.089,196.138 224.198 C 196.319 215.087,195.376 216.085,203.924 215.957 C 210.831 215.854,210.906 215.847,211.855 215.168 C 213.854 213.738,214.354 212.977,214.787 210.705 C 215.247 208.293,215.362 162.465,214.912 160.467 C 214.770 159.831,214.584 158.980,214.500 158.576 C 213.936 155.873,211.225 154.704,205.048 154.501 C 199.545 154.320,199.832 154.474,199.331 151.429 C 199.121 150.150,198.825 148.785,198.673 148.396 C 198.521 148.007,198.314 146.951,198.213 146.051 C 198.112 145.151,197.798 143.545,197.517 142.483 C 197.235 141.421,196.886 139.745,196.742 138.759 C 196.490 137.035,196.179 135.453,195.034 130.069 C 193.783 124.189,193.611 123.332,193.247 121.142 C 192.615 117.342,190.824 114.728,188.480 114.184 C 187.203 113.887,126.278 113.905,125.023 114.203 M187.494 114.383 C 189.090 114.575,191.724 116.534,191.724 117.530 C 191.724 117.817,191.959 118.521,192.247 119.095 C 192.534 119.669,192.847 121.055,192.942 122.177 C 193.037 123.298,193.294 124.602,193.513 125.073 C 193.733 125.545,194.043 127.008,194.202 128.323 C 194.362 129.639,194.666 131.131,194.879 131.639 C 195.091 132.146,195.353 133.491,195.462 134.626 C 195.570 135.761,195.826 137.020,196.031 137.424 C 196.235 137.828,196.529 139.270,196.683 140.628 C 196.837 141.986,197.136 143.518,197.347 144.032 C 197.559 144.545,197.823 145.897,197.933 147.034 C 198.043 148.172,198.307 149.442,198.518 149.855 C 198.730 150.269,198.982 151.355,199.077 152.270 C 199.356 154.933,199.229 154.870,204.736 155.069 C 210.903 155.291,211.671 155.494,213.241 157.310 L 214.207 158.427 214.207 185.404 L 214.207 212.382 213.614 212.934 C 213.288 213.238,212.978 213.586,212.925 213.709 C 212.322 215.089,211.187 215.305,203.768 215.448 C 194.650 215.625,195.586 214.673,195.586 223.773 C 195.586 227.991,195.476 230.864,195.301 231.191 C 195.052 231.656,178.735 232.105,178.437 231.655 C 178.412 231.617,178.319 228.208,178.230 224.078 C 178.086 217.370,178.017 216.518,177.576 216.078 C 176.856 215.359,136.324 215.164,135.611 215.877 C 135.233 216.254,135.172 217.283,135.172 223.293 C 135.172 229.934,135.145 230.305,134.601 230.997 L 134.029 231.724 126.069 231.724 L 118.109 231.724 117.537 230.997 C 116.994 230.306,116.965 229.930,116.961 223.342 C 116.959 219.469,116.842 216.231,116.696 216.000 C 116.479 215.656,115.242 215.563,109.344 215.448 C 103.952 215.343,102.224 215.226,102.136 214.960 C 102.072 214.767,101.658 214.422,101.216 214.194 C 100.775 213.966,100.414 213.641,100.414 213.472 C 100.414 213.303,100.225 213.026,99.994 212.857 C 98.860 212.028,98.538 159.977,99.656 158.272 C 101.435 155.557,102.000 155.362,108.883 155.087 C 114.264 154.871,114.148 154.922,114.473 152.620 C 114.603 151.704,114.836 150.715,114.993 150.423 C 115.149 150.131,115.417 148.784,115.589 147.429 C 115.761 146.074,116.083 144.565,116.305 144.076 C 116.527 143.586,116.776 142.345,116.858 141.317 C 116.940 140.289,117.237 138.766,117.518 137.931 C 117.799 137.097,118.102 135.585,118.192 134.572 C 118.282 133.559,118.527 132.318,118.737 131.813 C 118.946 131.309,119.250 129.811,119.411 128.483 C 119.572 127.156,119.839 125.819,120.003 125.512 C 120.168 125.204,120.425 123.873,120.575 122.554 C 120.725 121.235,121.019 119.811,121.229 119.391 C 121.438 118.970,121.693 118.251,121.793 117.791 C 122.046 116.643,124.364 114.672,125.720 114.453 C 127.102 114.230,185.667 114.163,187.494 114.383 M131.882 126.244 C 131.568 126.644,131.310 127.333,131.310 127.775 C 131.310 128.217,131.115 128.956,130.877 129.417 C 130.639 129.878,130.337 131.292,130.206 132.559 C 130.075 133.826,129.825 135.130,129.650 135.457 C 129.475 135.784,129.157 137.299,128.943 138.824 C 128.729 140.348,128.435 141.739,128.290 141.915 C 128.144 142.090,127.888 143.407,127.720 144.841 C 127.553 146.275,127.252 147.821,127.051 148.276 C 126.850 148.731,126.602 149.910,126.499 150.897 C 126.395 151.883,126.246 152.958,126.166 153.286 C 126.073 153.670,126.227 154.089,126.597 154.459 L 127.172 155.034 156.828 155.034 L 186.483 155.034 187.056 154.461 C 187.371 154.146,187.560 153.710,187.477 153.492 C 187.393 153.275,187.251 152.260,187.159 151.238 C 187.068 150.216,186.764 148.697,186.483 147.862 C 186.203 147.028,185.907 145.516,185.826 144.503 C 185.746 143.491,185.498 142.228,185.277 141.697 C 185.055 141.166,184.733 139.580,184.562 138.173 C 184.391 136.765,184.132 135.469,183.986 135.294 C 183.841 135.118,183.547 133.727,183.333 132.203 C 183.119 130.678,182.826 129.202,182.683 128.922 C 182.540 128.643,182.342 127.987,182.242 127.466 C 181.840 125.348,184.054 125.517,156.805 125.517 L 132.454 125.517 131.882 126.244 M180.787 126.309 C 181.642 126.498,182.682 129.662,183.066 133.241 C 183.155 134.076,183.464 135.579,183.752 136.581 C 184.040 137.584,184.276 138.767,184.276 139.211 C 184.276 139.655,184.464 140.696,184.694 141.526 C 184.925 142.356,185.301 144.209,185.531 145.646 C 185.761 147.082,186.116 148.758,186.320 149.370 C 186.907 151.131,187.132 153.619,186.747 154.084 C 186.404 154.496,128.117 154.722,127.057 154.315 C 126.440 154.079,126.500 152.760,127.291 149.138 C 127.659 147.450,128.092 145.386,128.252 144.552 C 128.411 143.717,128.660 142.538,128.804 141.931 C 129.105 140.662,129.721 137.622,130.480 133.655 C 131.738 127.077,131.921 126.505,132.830 126.311 C 133.901 126.082,179.752 126.079,180.787 126.309 M123.941 171.550 C 123.302 171.665,122.547 171.968,122.264 172.224 C 121.981 172.480,121.604 172.690,121.426 172.690 C 121.126 172.690,119.702 174.047,118.535 175.446 C 117.168 177.085,116.287 181.705,117.059 183.185 C 117.261 183.571,117.504 184.280,117.600 184.761 C 117.970 186.609,120.131 188.849,122.826 190.179 C 124.708 191.108,129.391 191.182,130.395 190.300 C 130.671 190.057,131.207 189.765,131.586 189.651 C 132.850 189.270,135.697 186.234,135.721 185.241 C 135.725 185.090,135.938 184.593,136.194 184.138 C 136.843 182.989,136.843 179.218,136.194 178.069 C 135.938 177.614,135.727 177.044,135.726 176.802 C 135.723 176.148,132.696 172.690,132.127 172.690 C 131.969 172.690,131.502 172.440,131.089 172.135 C 130.244 171.510,126.072 171.169,123.941 171.550 M184.079 171.550 C 183.440 171.665,182.685 171.968,182.402 172.224 C 182.119 172.480,181.753 172.690,181.588 172.690 C 181.229 172.690,179.034 174.692,179.034 175.020 C 179.034 175.146,178.859 175.387,178.645 175.556 C 177.123 176.753,176.333 181.977,177.379 183.928 C 177.683 184.494,177.931 185.115,177.931 185.309 C 177.931 186.234,180.768 189.252,181.998 189.636 C 182.339 189.742,182.826 190.038,183.082 190.294 C 183.754 190.966,189.760 190.978,190.522 190.308 C 190.804 190.061,191.345 189.765,191.724 189.651 C 193.155 189.219,195.349 186.774,195.928 184.966 C 196.073 184.510,196.382 183.714,196.613 183.197 C 197.077 182.159,196.974 178.829,196.468 178.516 C 196.314 178.421,196.102 177.882,195.996 177.319 C 195.257 173.378,189.481 170.583,184.079 171.550 M130.883 172.582 C 136.168 175.257,137.786 181.671,134.405 186.543 C 129.759 193.241,119.628 191.221,117.663 183.206 C 115.784 175.535,123.874 169.033,130.883 172.582 M191.125 172.628 C 196.071 175.111,197.826 181.757,194.743 186.326 C 190.828 192.127,183.506 191.968,178.713 185.977 C 178.242 185.389,177.384 182.300,177.381 181.186 C 177.367 174.186,184.894 169.499,191.125 172.628 " stroke="none" fill="#747c04" fill-rule="evenodd"></path><path id="path4" d="M126.483 113.164 C 126.180 113.340,125.344 113.576,124.625 113.690 C 123.236 113.910,121.695 115.108,121.106 116.428 C 120.940 116.800,120.625 117.414,120.406 117.793 C 120.187 118.172,120.006 119.069,120.004 119.785 C 120.002 120.533,119.770 121.530,119.459 122.129 C 119.124 122.773,118.845 124.052,118.727 125.472 C 118.616 126.816,118.326 128.186,118.027 128.771 C 117.679 129.455,117.517 130.368,117.517 131.656 C 117.517 132.992,117.358 133.852,116.968 134.615 C 116.610 135.317,116.358 136.536,116.242 138.121 C 116.135 139.593,115.910 140.730,115.673 141.003 C 115.446 141.265,115.166 142.583,115.007 144.136 C 114.842 145.747,114.551 147.095,114.277 147.513 C 113.971 147.981,113.783 149.011,113.704 150.664 C 113.544 154.007,113.685 153.930,107.732 153.935 C 104.128 153.938,102.874 154.033,102.345 154.340 C 101.966 154.561,101.314 154.882,100.897 155.053 C 100.479 155.224,100.138 155.524,100.138 155.719 C 100.138 155.915,99.838 156.271,99.472 156.511 C 99.106 156.751,98.718 157.354,98.609 157.853 C 98.501 158.351,98.242 159.003,98.034 159.303 C 97.324 160.323,97.489 210.179,98.207 211.586 C 98.510 212.181,98.759 212.835,98.759 213.039 C 98.759 213.866,101.468 216.046,102.689 216.201 C 103.334 216.283,104.036 216.489,104.249 216.658 C 104.496 216.855,106.709 216.999,110.387 217.059 L 116.138 217.152 116.142 223.955 C 116.147 233.860,115.486 233.241,126.069 233.241 C 136.622 233.241,136.000 233.807,136.000 224.221 L 136.000 217.100 156.207 217.171 L 176.414 217.241 176.552 224.000 C 176.699 231.204,176.995 232.531,178.466 232.560 C 178.703 232.565,179.138 232.752,179.432 232.974 C 180.198 233.554,193.700 233.576,194.179 232.999 C 194.353 232.789,194.865 232.544,195.317 232.454 C 195.768 232.364,196.138 232.141,196.138 231.960 C 196.138 231.778,196.355 231.390,196.621 231.097 C 197.044 230.630,197.121 229.738,197.241 223.903 L 197.379 217.241 203.199 217.103 C 206.860 217.017,209.163 216.851,209.406 216.658 C 209.619 216.489,210.317 216.284,210.956 216.203 C 212.168 216.049,214.897 213.870,214.897 213.057 C 214.897 212.854,215.145 212.224,215.448 211.658 C 216.311 210.049,216.311 160.337,215.448 159.034 C 215.147 158.579,214.899 158.000,214.898 157.747 C 214.896 157.185,212.938 155.034,212.428 155.034 C 212.226 155.034,211.902 154.817,211.708 154.552 C 211.399 154.128,210.734 154.059,206.262 153.983 C 199.954 153.877,200.138 153.990,199.770 149.986 C 199.613 148.278,199.370 147.125,199.104 146.822 C 198.822 146.502,198.645 145.561,198.565 143.960 C 198.485 142.349,198.295 141.345,197.979 140.862 C 197.693 140.425,197.449 139.317,197.351 138.005 C 197.176 135.659,196.789 134.069,196.392 134.069 C 196.252 134.069,196.138 133.255,196.138 132.260 C 196.138 130.356,195.674 128.000,195.300 128.000 C 195.178 128.000,195.000 127.162,194.905 126.138 C 194.622 123.108,194.452 122.216,194.087 121.850 C 193.896 121.660,193.674 120.677,193.593 119.665 C 193.489 118.374,193.271 117.605,192.861 117.083 C 192.539 116.674,192.276 116.187,192.276 116.000 C 192.276 115.384,189.762 113.656,188.851 113.645 C 188.383 113.640,187.690 113.458,187.310 113.241 C 186.390 112.715,127.387 112.640,126.483 113.164 M188.306 113.899 C 190.848 114.392,192.920 117.140,193.384 120.634 C 193.529 121.727,193.830 123.117,194.053 123.724 C 194.276 124.331,194.464 125.266,194.471 125.802 C 194.477 126.338,194.673 127.455,194.906 128.285 C 195.138 129.114,195.517 130.972,195.747 132.414 C 195.978 133.855,196.346 135.566,196.566 136.217 C 196.786 136.867,196.966 137.802,196.966 138.294 C 196.966 138.787,197.156 139.869,197.388 140.699 C 197.621 141.528,198.000 143.386,198.230 144.828 C 198.460 146.269,198.819 147.951,199.026 148.565 C 199.234 149.179,199.492 150.580,199.601 151.678 C 199.852 154.226,199.812 154.207,204.907 154.207 C 211.284 154.207,213.695 155.347,214.827 158.897 C 215.485 160.962,215.559 209.421,214.907 211.664 C 213.811 215.436,211.609 216.276,202.815 216.276 C 196.019 216.276,196.696 215.450,196.669 223.775 C 196.641 233.019,197.204 232.514,186.897 232.535 C 176.541 232.556,177.103 233.058,177.103 223.787 C 177.103 220.434,176.982 217.372,176.834 216.982 L 176.564 216.272 156.213 216.343 L 135.862 216.414 135.724 223.724 C 135.576 231.568,135.573 231.585,134.182 232.166 C 132.850 232.723,119.288 232.723,117.956 232.166 C 116.565 231.585,116.562 231.568,116.414 223.724 L 116.276 216.414 109.793 216.234 C 101.104 215.992,99.702 215.356,98.652 211.177 C 97.988 208.531,97.978 162.445,98.642 159.551 C 99.580 155.456,101.440 154.447,108.461 154.224 C 114.102 154.045,113.618 154.268,113.964 151.682 C 114.113 150.567,114.414 149.159,114.631 148.552 C 114.849 147.945,115.149 146.422,115.299 145.168 C 115.449 143.913,115.702 142.643,115.862 142.345 C 116.022 142.047,116.278 140.796,116.433 139.566 C 116.587 138.336,116.886 136.813,117.097 136.182 C 117.307 135.551,117.614 134.054,117.777 132.856 C 117.941 131.658,118.246 130.168,118.455 129.545 C 118.663 128.923,118.923 127.607,119.031 126.621 C 119.140 125.634,119.464 124.118,119.752 123.250 C 120.040 122.382,120.277 121.141,120.278 120.491 C 120.283 117.932,122.792 114.454,125.012 113.929 C 126.222 113.643,186.837 113.614,188.306 113.899 M132.193 126.952 C 132.011 127.134,131.857 127.786,131.850 128.400 C 131.843 129.014,131.652 130.014,131.425 130.621 C 131.198 131.228,130.833 132.938,130.615 134.421 C 130.397 135.905,130.103 137.335,129.961 137.599 C 129.820 137.863,129.558 139.132,129.380 140.419 C 129.202 141.706,128.876 143.255,128.656 143.862 C 128.436 144.469,128.152 145.834,128.026 146.897 C 127.900 147.959,127.587 149.606,127.330 150.556 C 127.073 151.507,126.901 152.686,126.948 153.177 L 127.034 154.069 156.828 154.069 L 186.621 154.069 186.565 152.455 C 186.534 151.568,186.313 150.251,186.073 149.529 C 185.833 148.808,185.529 147.300,185.396 146.178 C 185.264 145.056,184.957 143.595,184.715 142.931 C 184.474 142.267,184.276 141.270,184.276 140.715 C 184.276 140.160,184.079 139.028,183.839 138.198 C 183.599 137.368,183.237 135.572,183.034 134.207 C 182.832 132.841,182.470 131.181,182.230 130.517 C 181.990 129.853,181.793 128.854,181.793 128.296 C 181.793 127.739,181.644 127.134,181.462 126.952 C 180.982 126.472,132.673 126.472,132.193 126.952 M181.350 127.609 C 181.442 127.849,181.517 128.691,181.517 129.481 C 181.517 130.336,181.725 131.325,182.029 131.923 C 182.341 132.533,182.618 133.881,182.736 135.360 C 182.844 136.706,183.112 138.071,183.335 138.415 C 183.557 138.757,183.851 140.228,183.989 141.684 C 184.138 143.264,184.399 144.514,184.636 144.786 C 184.877 145.062,185.108 146.198,185.223 147.678 C 185.347 149.274,185.603 150.482,185.967 151.180 C 186.272 151.766,186.482 152.593,186.434 153.019 L 186.345 153.793 156.759 153.863 L 127.172 153.934 127.172 152.920 C 127.172 152.362,127.365 151.693,127.601 151.432 C 127.873 151.131,128.129 149.985,128.303 148.278 C 128.460 146.747,128.763 145.314,129.009 144.938 C 129.279 144.526,129.493 143.376,129.582 141.864 C 129.676 140.278,129.868 139.285,130.141 138.971 C 130.404 138.671,130.649 137.502,130.804 135.812 C 130.963 134.088,131.202 132.962,131.473 132.663 C 131.754 132.352,131.948 131.360,132.057 129.685 L 132.220 127.172 156.701 127.172 C 178.770 127.172,181.199 127.215,181.350 127.609 M124.690 172.108 C 119.994 172.924,116.996 177.768,117.911 183.060 C 118.326 185.453,121.040 189.200,122.384 189.234 C 122.557 189.238,123.240 189.487,123.901 189.787 C 127.132 191.253,132.072 189.613,134.318 186.328 C 136.112 183.703,136.296 178.432,134.669 176.276 C 132.912 173.949,130.414 172.132,128.985 172.142 C 128.332 172.147,128.780 172.460,130.897 173.477 C 132.012 174.013,133.793 175.585,133.793 176.033 C 133.793 176.166,134.072 176.555,134.414 176.897 C 135.312 177.794,135.365 184.305,134.483 185.331 C 132.339 187.825,131.032 188.917,129.979 189.095 C 129.374 189.198,128.650 189.455,128.370 189.666 C 127.710 190.166,125.800 190.161,125.135 189.658 C 124.849 189.441,124.070 189.182,123.403 189.082 C 122.651 188.970,122.090 188.711,121.924 188.400 C 121.776 188.125,121.407 187.821,121.104 187.724 C 120.800 187.628,120.552 187.371,120.552 187.154 C 120.552 186.936,120.448 186.759,120.322 186.759 C 118.647 186.759,117.460 178.693,118.892 177.044 C 120.823 174.821,122.159 173.555,122.759 173.379 C 123.138 173.267,123.646 173.003,123.887 172.792 C 124.129 172.580,125.246 172.301,126.370 172.171 C 128.040 171.977,128.162 171.934,127.034 171.937 C 126.276 171.939,125.221 172.016,124.690 172.108 M184.552 172.125 C 178.748 173.325,175.830 181.145,179.279 186.256 C 181.543 189.610,186.521 191.307,189.655 189.793 C 190.262 189.500,190.902 189.256,191.077 189.251 C 191.581 189.236,193.649 187.402,194.524 186.193 C 196.308 183.730,196.353 178.490,194.610 176.103 C 193.579 174.690,192.059 173.241,191.608 173.241 C 191.409 173.241,190.931 172.993,190.545 172.690 C 190.160 172.386,189.491 172.152,189.060 172.170 C 188.475 172.194,188.416 172.237,188.826 172.341 C 189.129 172.418,189.673 172.714,190.036 172.999 C 190.398 173.284,190.872 173.517,191.087 173.517 C 191.303 173.517,192.062 174.130,192.774 174.878 C 195.354 177.589,195.172 177.118,195.172 181.103 C 195.172 185.104,195.393 184.554,192.636 187.422 C 191.536 188.565,190.947 188.955,190.109 189.097 C 189.508 189.198,188.788 189.455,188.508 189.666 C 187.853 190.163,185.940 190.163,185.285 189.666 C 185.005 189.455,184.296 189.200,183.708 189.101 C 182.625 188.918,179.586 186.494,179.586 185.813 C 179.586 185.642,179.338 185.289,179.034 185.030 C 178.535 184.602,178.483 184.216,178.483 180.978 C 178.483 177.681,178.526 177.375,179.034 177.103 C 179.338 176.941,179.586 176.632,179.586 176.417 C 179.586 175.830,182.064 173.517,182.691 173.517 C 182.915 173.517,183.427 173.259,183.829 172.942 C 184.304 172.569,185.210 172.292,186.418 172.151 C 188.116 171.953,188.157 171.934,186.897 171.930 C 186.138 171.928,185.083 172.015,184.552 172.125 " stroke="none" fill="#bec704" fill-rule="evenodd"></path></g></svg>